<?xml version="1.0" encoding="UTF-8"?>
<svg id="Layer_1" data-name="Layer 1" xmlns="http://www.w3.org/2000/svg" viewBox="0 0 92.02 85.56">
  <defs>
    <style>
      .cls-1 {
        fill: #ebb042;
      }

      .cls-2 {
        fill: #fff;
      }

      .cls-3 {
        fill: #072038;
      }

      .cls-4 {
        fill: #3b91b7;
      }
    </style>
  </defs>
  <rect class="cls-3" width="92.02" height="85.56" rx="13.09" ry="13.09"/>
  <g>
    <polygon class="cls-1" points="54.83 38.69 67.51 19.88 55.03 19.88 48.6 29.48 54.83 38.69"/>
    <path class="cls-2" d="m45.24,32.99h0s-8.92-13.12-8.92-13.12h-.04l-5.71-8.4h-12.48c6.95,10.24,13.9,20.48,20.84,30.71-5.03,7.44-10.07,14.87-15.1,22.31h12.53l15.1-22.31-6.22-9.19Z"/>
    <path class="cls-4" d="m67.46,64.49h.05c-4.23-6.27-8.45-12.54-12.68-18.81-2.09,3.08-4.17,6.16-6.26,9.24l6.4,9.57h0l6.42,9.6h12.54l-6.47-9.6Z"/>
  </g>
</svg>