<?xml version="1.0" encoding="UTF-8"?>
<svg id="Layer_1" data-name="Layer 1" xmlns="http://www.w3.org/2000/svg" xmlns:xlink="http://www.w3.org/1999/xlink" viewBox="0 0 486.41 220.46">
  <defs>
    <style>
      .cls-1 {
        fill: url(#linear-gradient);
        opacity: .31;
      }

      .cls-2 {
        fill: #f28765;
      }

      .cls-3 {
        fill: #ebb042;
      }

      .cls-4 {
        fill: #eab881;
      }

      .cls-5 {
        fill: #f79a3c;
      }

      .cls-6 {
        fill: #fff;
      }

      .cls-7 {
        fill: #fbb94b;
      }

      .cls-8 {
        fill: #7389c5;
      }

      .cls-9 {
        fill: #805f2c;
      }

      .cls-10 {
        fill: #9e5a25;
      }

      .cls-11 {
        fill: #b99549;
      }

      .cls-12 {
        fill: #302d7c;
      }

      .cls-13 {
        fill: #a86533;
      }

      .cls-14 {
        fill: #bcc8e7;
      }

      .cls-15 {
        fill: #cc8e63;
      }

      .cls-16 {
        fill: #cc945b;
      }

      .cls-17 {
        fill: #dfbe93;
      }

      .cls-18, .cls-19 {
        fill: #d4d7e8;
      }

      .cls-20 {
        fill: #e09957;
      }

      .cls-21 {
        fill: #222849;
      }

      .cls-22, .cls-23 {
        fill: #94a6d5;
      }

      .cls-24 {
        fill: #2c1812;
      }

      .cls-25 {
        fill: #3b91b7;
      }

      .cls-26 {
        fill: #6078bb;
      }

      .cls-27 {
        fill: #5e55a3;
      }

      .cls-28 {
        fill: #749dd2;
      }

      .cls-29 {
        fill: url(#linear-gradient-3);
      }

      .cls-29, .cls-30 {
        opacity: .76;
      }

      .cls-30 {
        fill: url(#linear-gradient-2);
      }

      .cls-31 {
        fill: #d9ddea;
        opacity: .69;
      }

      .cls-19 {
        opacity: .78;
      }

      .cls-23 {
        opacity: .26;
      }
    </style>
    <linearGradient id="linear-gradient" x1="-713.18" y1="180.79" x2="-667.03" y2="148.15" gradientTransform="translate(804.2 0) scale(1.03 1)" gradientUnits="userSpaceOnUse">
      <stop offset="0" stop-color="#abb9d6"/>
      <stop offset=".59" stop-color="#879acb"/>
      <stop offset="1" stop-color="#7389c5"/>
    </linearGradient>
    <linearGradient id="linear-gradient-2" x1="-4461.58" y1="182.55" x2="-4433.68" y2="162.82" gradientTransform="translate(-4336.26) rotate(-180) scale(1 -1)" xlink:href="#linear-gradient"/>
    <linearGradient id="linear-gradient-3" x1="-4726" y1="177.92" x2="-4686.06" y2="149.67" gradientTransform="translate(-4336.26) rotate(-180) scale(1 -1)" xlink:href="#linear-gradient"/>
  </defs>
  <path class="cls-31" d="m159.19,41.61c-10.94,6.93-24.12,11.78-35.03,17.87-17.57,9.82-40.56,18.4-54.86,32.6-21.97,21.83-12.08,57.76-29.35,81.42-5.34,7.32-11.44,15.08-11.33,24.14.06,4.62,81.7,5.08,88.21,5.01,34.05-.38,68.05-2.44,102.02-4.75,65.59-4.46,131.18-.08,197.05,2.34,10.12.37,20.11-.44,30.23-.98,3.2-7.04-3.87-14.08-9.32-19.57-17.75-17.91-23.5-44.07-30.03-68.43-11.45-42.73-31.18-65.83-74.62-76.6-31.3-7.76-61.19-12.63-93.29-16.73-12.01-1.54-24.14-3.07-36.18-1.83-17.23,1.78-23.65,9.21-35.38,19.5-2.5,2.19-5.24,4.17-8.13,6.01Z"/>
  <path class="cls-18" d="m434.64,135.45l-.02-.03-18.53,27.29h-.08s-11.86,17.47-11.86,17.47h-13.56s-12.37,0-12.37,0h-13.56c14.44-21.28,28.88-42.55,43.32-63.83-10.46-15.45-20.92-30.91-31.38-46.36h13.56s12.47,0,12.47,0h13.56s31.38,46.36,31.38,46.36l-12.93,19.1Z"/>
  <path class="cls-19" d="m131.22,79.42c11.67-16.76,23.34-33.52,35.01-50.29h.13c5.59-8.03,11.17-16.05,16.76-24.08h-47.73s-24.87,0-24.87,0l-11.08,15.92h-.13l-40.69,58.45,23.7,34.04.04-.05,33.97,48.63h.15l21.74,31.13h47.55s24.87,0,24.87,0c-26.47-37.92-52.95-75.83-79.42-113.75Z"/>
  <path class="cls-26" d="m445.46,111.39c.32.26.18.64.25.97-.57-.2-.24-.63-.25-.97Z"/>
  <path class="cls-8" d="m461.15,112.4c.05-.08.1-.17.16-.25.13.2.13.32-.16.25Z"/>
  <path class="cls-8" d="m457.22,112.24c.1.05.2.09.3.14-.16.09-.24,0-.3-.14Z"/>
  <path class="cls-1" d="m90.11,206.8c-16.42-22.37-32.85-44.74-49.27-67.11,12.5-15.44,25.01-30.88,37.51-46.32,25.95,36.93,51.91,73.87,77.86,110.8-22.04.88-44.07,1.75-66.11,2.63Z"/>
  <path class="cls-30" d="m113.61,199.11c8.32-13.33,16.64-26.66,24.96-39.99-6.33-9.2-12.67-18.4-19-27.6-13.15,22.01-26.29,44.02-39.44,66.03,11.16.52,22.32,1.04,33.48,1.56Z"/>
  <path class="cls-29" d="m372.88,201.76c11.6-19.02,23.2-38.04,34.79-57.07-8.83-13.13-17.66-26.26-26.49-39.38-18.33,31.41-36.66,62.81-54.99,94.22,15.56.74,31.12,1.49,46.68,2.23Z"/>
  <rect class="cls-9" x="159.64" y="110.58" width="7.19" height="9"/>
  <g>
    <rect class="cls-27" x="211.99" y="16.37" width="150.18" height="80.25" rx="7.85" ry="7.85"/>
    <rect class="cls-21" x="207.47" y="12.98" width="149.95" height="80.12" rx="7.85" ry="7.85"/>
  </g>
  <rect class="cls-13" x="327.43" y="121.52" width="7.19" height="9"/>
  <rect class="cls-15" x="293.43" y="125.08" width="7.19" height="9"/>
  <path class="cls-24" d="m148.69,127.73c-1.47-.85-1.52-2.44-1.73-3.79-.25-1.63-.4-3.29-.58-4.93-.29-2.6-1.14-4.95-2.55-7.13-1.42-2.19-2.18-4.57-2.29-7.18-.03-.71.51-1.32.26-2.03.53-.93.73-2.01,1.34-2.91.95-1.42,2.19-2.43,3.82-2.92.48-.15.98-.22.8-.86-.73-2.51.57-4.25,2.17-5.89,1.82-1.26,3.87-1.93,6-2.41.2.1.25-.05.3-.19h0c1.22-.14,2.46-.18,3.65-.55,4.38.04,8.41-1.51,12.5-2.78,2.42-.75,4.91-1.01,7.37-.32,2.28.64,3.25,2.21,3.52,4.56.48,4.21-.39,8-2.9,11.45-.41.56-.32,1.47-.51,2.21-.35,1.34-.99,2.51-2.2,3.29-.03-1.44-.49-2.85-.32-4.31.1-.89-.24-1.01-1.06-.76-1.78.53-3.58,1.11-5.45.33-.68-.28-.85.05-.79.64.17,1.6-.25,3.15-.33,4.73-.1,1.99-.83,3.82-1.94,5.48-.83,1.24-1.53,1.28-2.53.25-1.56-1.6-4.14-1.62-5.67-.04-1.6,1.64-1.6,4.36.23,5.73,1.2.9,1.02,1.86.71,2.93-.39,1.34-1.32,2.27-2.68,2.59-1.04.25-1.56.83-2.04,1.76-1.4,2.7-4.34,3.9-7.08,3.06Z"/>
  <path class="cls-24" d="m198.68,61.87c-.22-.36-.34-.75-.27-1.19.35-.78.49-1.49-.66-1.69-.39-1.74-1.07-3.54.91-4.84.38-.17.76-.34,1.15-.51.95.16,1.9.03,2.87.27,1.2.3,1.56.86,1.31,1.98-.83-.97-1.93-1.18-3.12-1.08-1.02.08-.69,1.05-1.02,1.59-.07.12-.13.24-.21.35-.99,1.32-.93,1.7.48,2.84.09.07.17.14.26.22,0,0,.03.07.03.07-.08.32.55.15.37.58-.41.96.39,1.13.98,1.29.63.17,1.32.18,1.76-.49.37-.57.1-.75-.47-.73.05-.14.1-.28.15-.42.16-.02.39.08.44-.15.02-.09-.14-.21-.21-.32.18-.41-.23-.53-.38-.77-.57-.91-.3-1.43.89-1.7-.49,1.22-.1,2.39.24,3.55.55,1.86.16,2.65-1.57,3.14-.51,0-1.03-.02-1.54-.02-1.04-.36-1.7-1.17-2.38-1.97Z"/>
  <path class="cls-8" d="m207.12,65.42c5.78,1.44,11.35.24,16.92-1.24.57-.15,1.13-.48,1.76-.27.41.84.47,1.86,1.32,2.46-.03.51.39,1-.24,1.51-5.3,4.28-11.03,7.55-18.07,7.77.24-3.54-.4-6.94-1.69-10.22Z"/>
  <path class="cls-6" d="m196.44,65.12c.5-.48.92-1.06,1.63-1.28-.41,1.42.69,1.14,1.43,1.26,1.25.42,2.47.71,3.36-.67.5-.14.92.2,1.38.24,2.1,3.07,2.84,6.52,2.9,10.18.05,2.98-.13,5.96.2,8.94.08.71.27,1.49-.22,2.17,0,0,0,.1,0,.1-.23-.04-.46-.09-.69-.13-.32-.26-.68-.11-1.03-.08.94-1.9.51-3.72-.24-5.56-.19-.46-.16-1.01-.23-1.51.03-.03.09-.07.08-.1-.02-.08-.06-.15-.09-.22.3-2.65.1-5.25-.84-7.75-.44-1.18-1.07-2.28-.88-3.62.11-.79-.6-1.02-1.14-1.23-.56-.23-.62.42-.87.71-.6.7-.35,1.4.05,2.08.21.36.6.7.63,1.07.2,2.67.67,5.35-.19,7.99-.38,1.16-.9,2.27-1.23,3.44-.37,1.32-.28,2.58.81,3.64.31.3.96.59.53,1.25-.94,0-1.89,0-2.83,0-.34-.51-.28-1.08-.25-1.64.22-3.6.34-7.2.23-10.8-.1-3.02-.66-5.94-2.51-8.47Z"/>
  <path class="cls-22" d="m207.13,85.95c.49-.68.29-1.46.22-2.17-.33-2.98-.16-5.96-.2-8.94-.06-3.66-.8-7.11-2.9-10.18,1.02,0,2.05-.02,2.87.76,1.29,3.29,1.93,6.68,1.69,10.22-.42,1.22-.4,2.44-.07,3.67.1.94-.12,1.92.32,2.82.01.6-.04,1.22.04,1.81.36,2.5.97,4.98.48,7.53-.31-.38-.16-1.42-.91-1.12-1.66.66-1.15-.63-1.26-1.28-.18-1.03.32-2.12-.28-3.12Z"/>
  <path class="cls-14" d="m175.27,146.09c.54-.63,1.24-.34,1.86-.34,40-.02,80.01-.01,120.01-.01.22,2.19-.07,4.32-.63,6.42-.46,1.1-1.63,1.68-1.82,2.98-3.33.67-6.53,1.76-9.53,3.46-1.78,1.01-3.72,1.85-5.22,3.22-8.17,7.47-14.96,16.16-19.66,26.67-1.6,3.58-2.96,7.25-4.26,10.96-1.61.32-3.24.03-4.86.04-7.79.06-15.57.06-23.36.06-3.85,0-7.83-.33-11.66-.03-2.96.23-5.56,1.4-8.7,1.15-2.81-.22-5.67-.73-8.44-.14.23-3.57-.17-7.17-1.14-10.59-.35-1.25-.65-2.27-.77-3.56-.1-1.08-.52-1.97-.66-3.05-.03-.19-.05-.38-.08-.57-.33-1.92-.86-3.76-1.6-5.54-.48-1.22-.96-2.44-1.44-3.65.11-2.08-.68-3.76-1.99-5.21-.02-.18-.05-.36-.07-.54-.43-1.57-1.21-2.96-1.93-4.38-.04-.32-.25-.48-.49-.6-.42-1.22-1.03-2.34-1.7-3.41-.33-.53-.45-1.39-1.33-1.24-.1-.1-.19-.2-.29-.31-.02-.24-.05-.48-.29-.59-.1-.11-.19-.22-.29-.32-.09-.1-.17-.2-.26-.3-.03-.17-.07-.35-.1-.52-.02-.2.03-.46-.07-.58-1.56-1.89-3.06-3.86-4.77-5.59-.69-.69-1.25-1.83-2.44-1.82-.2-1.25-1.46-1.26-2.04-2.06Z"/>
  <path class="cls-2" d="m231.6,61.52c.27-.69,2.01-.72,1.44-2.15-.77.59-1.54,1.17-2.31,1.76-.13.06-.25.12-.38.18-.16.04-.32.08-.48.12l-.09.08s-.1-.06-.1-.06c-.18-.04-.35-.08-.53-.13.05-.31-.16-.64.07-.94.36-.46.68-1.16.1-1.42-.61-.28-.73.62-1.04,1.02-.02.03-.02.09-.02.14-1.35.9-1.8,2.31-2.1,3.79-.12,0-.23,0-.35,0,.41.84.47,1.86,1.32,2.46.1-.11.21-.23.31-.35.64-.65,1.49-.83,2.32-.78,2.21.12,3.75-.66,4.38-2.89.04-4-1.94.63-2.53-.83Z"/>
  <path class="cls-23" d="m206.44,153.48c9.25,7.45,18.5,14.9,27.75,22.35,1.59,1.28,3.36,2.63,5.4,2.63s4.12-2.15,3.22-3.99c2.6,5.21,19.18,14.74,24.51,17.46,7.4,3.78,16.18,3.82,23.97.55,6.74-2.83,12.31-7.9,18.89-11.08,5.27-2.55,11.06-3.84,16.39-6.26,1.73-.79,3.46-1.73,4.65-3.21,1.47-1.81,1.97-4.21,2.23-6.53.68-6.14.66-17.66-4.56-22.18-.8-.7-1.88-.97-2.92-1.18-4.58-.96-9.27-1.3-13.95-1.45-33.62-1.08-67.28,7.31-100.71,3.57-11.81-1.32-15.05,1.13-4.98,9.24.04.03.07.06.11.09Z"/>
  <path class="cls-17" d="m230.73,61.13c-.13.06-.25.12-.38.18.03-.25.19-.25.38-.18Z"/>
  <path class="cls-7" d="m264.17,65.3c.11.02.21.03.32.05-.11-.02-.21-.03-.32-.05Z"/>
  <polygon class="cls-17" points="229.87 61.44 229.78 61.51 229.69 61.45 229.78 61.39 229.87 61.44"/>
  <path class="cls-7" d="m121.83,154.14c.27-.9.82-1.66,1.57-2.13.52-.33.71-.78,1.02-1.21.44-.31.88-.62,1.33-.93,1.17-.1,1.74-.83,2.04-1.89,1.31-.25,2.32-.89,2.84-2.17.07-.04.14-.09.21-.12.41.02.82.03.85-.54,1.11-.58,2.22-1.16,3.33-1.74.37-.03.87.08,1.08-.12,1.11-1.06,2.66-1.13,3.96-1.76,1.64-.79,3.45-1.38,5.34-1.49.87-.05,1.69-.28,2.27-1.01,2.76-.03,5.52-.03,8.28-.09,1.6-.03,3.12.26,4.68.62,2.05.48,3.9,1.56,6.02,1.76.86,1.5,2.34,1.9,3.89,2.14,1.21.77,2.42,1.53,3.64,2.3.85,1.01,1.78,1.9,3.14,2.18,0,.53.4.82.73,1.14,3.79,3.72,7.79,6.39,10.98,10.86,2.96,4.16,5.28,8.76,6.88,13.6,1.36,4.13,2.21,8.43,2.47,12.77.13,2.2.03,4.4.08,6.6.04,1.69,1.4,2.85-1.36,2.85-29.38,0-58.76,0-88.15,0-.47,0-.94-.02-1.4-.04-.27-.65-.29-1.28-.21-2.01.32-2.79.49-5.6.71-8.4.09-1.7.29-3.38.89-4.99.49-.09.45-.49.53-.85.56-2.48,1.2-4.93,2.19-7.29.27-.64.45-1.31.33-2.03.14-.25.38-.47.27-.81.25-.11.3-.33.33-.57.43-.07.6-.41.75-.76.84-1.91,1.6-3.85,2.96-5.48.35-.42.25-.97-.04-1.44.03-.08.09-.14.17-.19.15.03.39.14.44.08.15-.15,0-.29-.15-.39.03-.09.06-.18.09-.28,1.22.1,1.21-1.12,1.71-1.72.76-.93,1.78-1.76,1.9-3.11.13-.16.27-.31.4-.47.49-.14.83-.44,1.02-.92Z"/>
  <path class="cls-5" d="m365.08,183.44c.86,3.23,1.48,6.51,1.81,9.84.04.46.11.93-.09,1.37-1.04.52-2.13.7-3.29.59-.35-.03-.74-.09-1.03.24-.1.03-.19.06-.29.09-.08-.05-.17-.1-.25-.15-.62-.34-1.28-.16-1.93-.18-4.75-.15-9.51.25-14.26-.24-1.62-.17-3.27-.02-4.9-.03-.49,0-.94.03-1.17.56-.19.01-.37.03-.55.04-.2-.05-.39-.1-.59-.14-.38-.28-.81-.17-1.22-.17-9.4,0-18.79,0-28.19,0-.41,0-.85-.1-1.22.18-.3,0-.59,0-.89,0-.47-.33-1-.18-1.5-.18-6.31-.01-12.63,0-18.94,0-.6,0-1.23.1-1.75-.31.38-1.42.83-2.83,1.11-4.27.23-1.2,1-2.26.88-3.54,0-.13.02-.26.03-.39.77-.95,1.35-1.98,1.35-3.25l.02-.06c1.32-1.29,1.89-2.99,2.5-4.66.01-.16.02-.32.04-.48,1.12-.72,1.66-1.81,1.94-3.06-.01-.08.01-.15.07-.2.81.1,1.06-.6,1.27-1.09.63-1.41,2.33-2.07,2.56-3.73.15-.18.3-.35.45-.53,1.17,0,1.52-1.15,2.15-1.78.6-.59,1.71-.91,1.68-2.05.17-.15.33-.3.5-.45,1.76-.45,2.67-1.99,3.95-3.06l.09-.02c.07-.05.14-.1.21-.16.12-.19.2-.5.36-.55,1.78-.55,3.12-1.88,4.76-2.68,1.43,0,2.55-.65,3.5-1.66.25-.34.64-.23.97-.3,1.22.46,2-.75,3.08-.82.04.92,1.37.53,1.44,1.42h0c-1.01.16-1.11.9-1.1,1.72h0c-.49-.08-.63.3-.81.63-.73,1.35-1.41,2.72-2.21,4.03-.34.56-.45,1.11-.41,1.72-.04.12-.08.23-.12.35-.54.06-.59.55-.75.91-1.34,2.85-1.68,5.88-1.33,8.96.16,1.36.36,2.89,1.89,3.62l.35.44c.18,1.05.78,1.68,1.86,1.82l.06.03c.02.28,0,.56.29.74,2.77,1.8,5.72,3.01,9.09,2.55,1.1-.15,2.48.28,3.27-1,.71-.48,1.1.09,1.56.47,4.54,3.68,9.62,6.03,15.55,6.2,8.65.24,13.71-3.35,16.36-11.53.94,1.27,1.27,2.79,1.81,4.23Z"/>
  <path class="cls-21" d="m290.75,178.27c-.01.16-.02.32-.04.48-1.31,1.3-1.94,2.96-2.5,4.66,0,0-.02.06-.02.06-.6,1.02-1.26,2.02-1.35,3.25,0,.13-.02.26-.03.39-1.43,2.6-2.04,5.45-2.54,8.33-.18.03-.37.09-.55.09-9.24-.01-18.48-.03-27.71-.04,0-.11,0-.23.01-.34,1.3-3.41,2.66-6.79,4.26-10.08,4.7-9.67,11.49-17.67,19.66-24.54,1.51-1.27,3.44-2.04,5.22-2.97,3.01-1.56,6.21-2.57,9.53-3.18.34,0,.68,0,1.01,0,.23,0,.45,0,.68,0,1.03,0,2.07-.01,3.1-.02.34.09.67.12,1-.04.41-.02.83-.05,1.24-.07.18.2.34.18.5-.03.42-.02.84-.05,1.25-.07.19.02.38.04.57.05.21.26.42.27.63,0,2.75-.08,5.5-.14,8.23-.49.55-.06,1.1-.12,1.64-.18.54.15,1.1.24,1.61.46.84.38,1.95.28,2.47,1.29-.93.99-2.47.73-3.42,1.67-.33.07-.72-.04-.97.3-1.16.56-2.49.78-3.5,1.66-1.64.8-2.98,2.13-4.76,2.68-.16.05-.24.36-.36.55-.1.02-.17.07-.21.16,0,0-.09.02-.09.02-1.4.91-2.92,1.67-3.95,3.06-.17.15-.33.3-.5.45-1.55,1.01-2.77,2.33-3.83,3.83-.15.18-.3.35-.45.53-1.56,1.38-2.74,3.06-3.83,4.81-.05.06-.08.13-.07.2-.86.89-1.39,1.98-1.94,3.07Z"/>
  <path class="cls-17" d="m338.54,195.42c.2.05.39.1.59.14-.5.4-1.09.21-1.63.21-17.17.01-34.33.01-51.5,0-.48,0-1.05.22-1.43-.31.07-.04.14-.08.22-.1,7.41.27,14.82.14,22.23.07.3,0,.59,0,.89,0,.56.03,1.12.07,1.68.07,7.45,0,14.9,0,22.35,0,2.2,0,4.4-.05,6.6-.08Z"/>
  <path class="cls-20" d="m339.68,195.53c.23-.52.69-.56,1.17-.56,1.63,0,3.28-.14,4.9.03,4.75.49,9.51.09,14.26.24.64.02,1.31-.16,1.93.18-.65.03-1.3.08-1.95.09-3.68.04-7.36.06-11.04.09-2.65.04-5.29.08-7.94.1-.45,0-.93.15-1.34-.18Z"/>
  <path class="cls-17" d="m108.04,185.34c-.22,2.8-.39,5.61-.71,8.4-.08.73-.06,1.36.21,2.01-.36.2-.6-.1-.88-.2-.1-2.37.48-4.68.54-7.03.59-.98-.03-2.27.84-3.17Z"/>
  <path class="cls-2" d="m284.79,195.36c-.08.02-.15.06-.22.1-.1,0-.19-.01-.29-.02.5-2.88,1.11-5.73,2.54-8.33.12,1.28-.65,2.34-.88,3.54-.28,1.44-.73,2.85-1.11,4.27-.01.15-.02.29-.03.44Z"/>
  <path class="cls-17" d="m348.96,195.61c3.68-.03,7.36-.06,11.04-.09.65,0,1.3-.06,1.95-.09.08.05.17.1.25.15-.21.25-.5.23-.78.23-3.93,0-7.87,0-11.8,0-.22,0-.44-.12-.65-.19Z"/>
  <path class="cls-17" d="m198.66,191.03c.89,1.5.63,3.15.61,4.76-.21-.02-.43-.04-.64-.07.45-.74.4-1.49.1-2.28-.3-.79-.52-1.6-.07-2.42Z"/>
  <path class="cls-20" d="m362.48,195.48c.29-.32.67-.27,1.03-.24,1.16.11,2.25-.08,3.29-.59,0,.18,0,.37,0,.55-.12.1-.24.2-.36.31-1.32.34-2.64.06-3.96-.03Z"/>
  <path class="cls-17" d="m366.44,195.51c.12-.1.24-.2.36-.31.04.11.08.22.13.32-.16,0-.33-.01-.49-.02Z"/>
  <path class="cls-22" d="m207.16,195.78c.07,0,.14,0,.2,0-.03.06-.07.12-.1.18-.03-.06-.07-.12-.1-.18Z"/>
  <path class="cls-22" d="m174.17,145.77c-1.21-.77-2.42-1.53-3.63-2.3-.52-.75-1.41-.87-2.13-1.29-.5-.29-.99-.58-1.03-1.22-.06-1.02-.41-2.02-.27-3.06,7.98-.02,15.96-.03,23.94-.05.7,0,1.39-.06,2.09-.09,0,0,.11-.01.11-.01,0,0,.09.07.09.07.11.08.22.23.33.23,3.44.01,6.89.01,10.33,0,.11,0,.22-.15.33-.23.72,0,1.44-.01,2.15-.02.24.28.56.31.89.31,3.13,0,6.26,0,9.39,0,.34,0,.65-.06.91-.29l10.2-.04c.26.34.64.32,1.01.32,2.96-.01,5.92-.02,8.88-.04,7.1.02,14.21.04,21.31.05.37,0,.76.02,1.01-.34.45.02.9.03,1.35.05,9.09.02,18.18.04,27.27.05.11.13.22.28.28.44s0,.35.05.5c.08.29.5.64.71.88.53.59,1.1,1.14,1.69,1.68.61.57,1.24,1.13,1.96,1.56.65.39,1.54.78,2.3.83,1.36.09,1.71.78,1.46,1.98-40,0-80.01,0-120.01.01-.62,0-1.32-.26-1.86.32-.37-.1-.73-.19-1.1-.29Z"/>
  <path class="cls-12" d="m207.13,85.95c.61,1,.11,2.09.28,3.12.11.65-.39,1.94,1.26,1.28.75-.3.6.73.91,1.12.2,5.06.53,10.1.98,15.14.19,7.14.33,14.27.81,21.4-.02,1.91-.03,3.83-.05,5.74-.81.31-1.7.37-2.44.05-.79-.35-1.32-.08-1.92.28-.73.23-1.18.21-1.3-.79-.4-3.38-.99-6.74-1.34-10.12-.49-4.73-1.13-9.43-1.78-14.2-.8,1.07-.53,2.3-.71,3.4-.68,4.05-1.13,8.14-1.7,12.2-.36,2.54-.95,5.05-1.1,7.6-.09,1.52-.61,2.07-1.99,2.08-1.06-.38-2.08.29-3.13.1-.58-.13-.8-.39-.88-1.09-.37-3.47-.22-6.95-.28-10.43.04-2.51.16-5.02-.2-7.52-.02-5.23-.04-10.46-.05-15.7.4,0,.8,0,1.31,0-.71-1.37-.89-2.84-1.26-4.26.74-.31,1.26-.77.99-1.68.03-1.13.05-2.27.08-3.4,1.41.25,2.82.47,4.22.76.98.2,1.29-.17,1.11-1.09-.17-.91-.39-1.82-.23-2.76,1.01,0,2.01-.04,3.02-.01.61.02,1-.11.89-.82.04.02.09.04.12.07q1.48,1.69,2.41-.28c-.11.9.42,1.05,1.17,1.05.88,0,.98-.46.8-1.16v-.1Z"/>
  <path class="cls-16" d="m166.64,141.33c-2.12-.19-3.97-1.28-6.02-1.76-1.56-.36-3.08-.65-4.68-.62-2.76.05-5.52.06-8.28.08-.2-.03-.4-.06-.6-.09,1.2-3.64,1.7-7.39,1.63-11.22,2.74.84,5.68-.36,7.08-3.06.48-.93,1-1.52,2.04-1.76,1.36-.32,2.29-1.25,2.68-2.59.31-1.07.49-2.03-.71-2.93-1.83-1.37-1.83-4.09-.23-5.73,1.53-1.57,4.12-1.55,5.67.04,1,1.03,1.7.99,2.53-.25,1.1-1.65,1.83-3.49,1.94-5.48.08-1.58.5-3.14.33-4.73-.06-.59.11-.92.79-.64,1,.41,2.08.45,3.13.27.87-.15,1.8-.69,2.7-.62.34.03.3.06.34.4.03.27.05.55.08.82l.16,1.64.34,3.49c.12,1.18.26,2.36.39,3.54.12,1.09.86,2.07,1.55,2.88.76.89,1.62,1.75,2.07,2.84.14.33.23.71.07,1.02-.07.13-.18.24-.29.35-1.32,1.22-2.84,1.52-3.44,3.49-.17.57-.17,1.18-.16,1.78.01,1.29.02,2.59.04,3.88.04,3.86-2.47,5.37-6.03,5.8-.79.1-1.59.06-2.38.08-1.85.04-2.39.51-2.51,2.41-.07,1.07,0,2.15,0,3.22-.54,1.12-.05,2.31-.22,3.46Zm-4.56-26.83c.38,1.33,1.07,1.5,2.27.55.65.86-.74.9-.62,1.55,1.53-.36,1.98-2.12.91-3.53-.87-1.79-2.35-2.19-3.39-.91.5.16.94-.45,1.46-.1-.12.24-.23.49-.35.73-.75.46-1.37.95-.28,1.72Zm-1.55-1.88c.03-.08.04-.14.06-.19-.04.01-.1.02-.1.03,0,.04.02.08.04.16Z"/>
  <path class="cls-8" d="m193.62,90.29c-.03,1.13-.05,2.27-.08,3.4-.42.81-1.03.93-1.95.88-.78-.04-1.87-.69-2.46.49-.07.05-.13.09-.19.14-.13-.05-.25-.1-.38-.16-.1-.6-.28-1.12-1.02-1.16-.03-.45-.06-.91-.1-1.36.14-.07.39-.13.41-.23.06-.3-.21-.3-.42-.34-.05-.55-.1-1.09-.15-1.64.2-.09.55-.17.56-.28.04-.4-.36-.29-.59-.38-.17-5.95.24-11.85,2-17.57.51-1.65,1.2-3.24,2.46-4.51.37-.37.73-.73,1.29-.77,2.75,2.44,3.03,5.55,2.23,8.83-1.17,4.82-1.67,9.69-1.61,14.63Z"/>
  <path class="cls-22" d="m193.62,90.29c-.07-4.94.43-9.81,1.61-14.63.8-3.28.53-6.4-2.23-8.83.92-1.03,2.2-1.33,3.45-1.71,1.84,2.52,2.41,5.44,2.51,8.46.12,3.6,0,7.2-.23,10.8-.03.55-.09,1.13.25,1.64-.51.31-.2.79-.25,1.19-.16.94.06,1.85.23,2.76.18.92-.14,1.29-1.11,1.09-1.4-.29-2.81-.51-4.22-.76Z"/>
  <path class="cls-24" d="m193.91,134.36c1.05.19,2.07-.48,3.13-.1.98.76,2.12,1.09,3.31,1.38,1.38.34,2.8.73,3.74,1.96-.51.35-1.09.19-1.63.19-3.04.02-6.09.02-9.13.02l-.09-.07s-.11.01-.11.01c.04-1.18-.58-2.52.78-3.4Z"/>
  <path class="cls-2" d="m202.6,63.87c-.51,0-1.03-.02-1.54-.02-1.04-.36-1.7-1.17-2.38-1.97-.6.53.05,1.45-.6,1.97-.41,1.42.69,1.14,1.43,1.26,1.25.42,2.47.71,3.36-.67-.23-.12-.27-.33-.27-.56Z"/>
  <path class="cls-17" d="m166.64,141.33c.17-1.15-.32-2.33.22-3.46.08,0,.16,0,.24.03-.14,1.04.2,2.04.27,3.06.04.64.53.92,1.03,1.22.71.42,1.61.54,2.13,1.29-1.56-.24-3.03-.64-3.89-2.14Z"/>
  <path class="cls-2" d="m193.59,99.62c.04-.57-.25-1.08-.42-1.69-.06-.23-.53-2.56-.62-2.56-.19,0-.38,0-.57,0-.13-.03-.26-.05-.39-.08-.13.21-.32.26-.53.27.21-.02.4-.06.53-.27-.79-.39-1.64-.1-2.45-.23-.07.05-.13.09-.2.14-.24.55-.56,1.07-.69,1.65-.35,1.47-.81,3.01.83,4.09.09.73.62,1.09,1.17,1.48.74.52,1.16.54,1.12-.54-.03-.65-.02-1.31.02-1.96.05-.72.17-.85.83-1.16.15-.07.35,1.35.39,1.42.11.2.32.39.54.32.14-.04.23-.18.29-.31.09-.2.14-.39.15-.57Z"/>
  <path class="cls-2" d="m197.75,59c1.15.2,1.01.9.66,1.69-.5,0-1.05.09-1.27-.51-.22-.58.11-.94.62-1.18Z"/>
  <path class="cls-26" d="m192.55,115.33c.36,2.5.24,5.01.2,7.52-.23-2.5-.33-5.01-.2-7.52Z"/>
  <path class="cls-22" d="m187.53,93.9c.73.04.92.56,1.02,1.16-1.01.21-1.03-.46-1.02-1.16Z"/>
  <path class="cls-17" d="m178,123.44c-.27-.99-.16-2-.05-3,.3.99.2,1.99.05,3Z"/>
  <path class="cls-22" d="m187.25,89.68c.23.08.63-.03.59.38-.01.11-.37.19-.56.28,0-.22-.02-.44-.03-.65Z"/>
  <path class="cls-17" d="m177.67,107.72c-.17-.44-.14-.89-.07-1.34.32.43.27.88.07,1.34Z"/>
  <path class="cls-22" d="m187.43,91.97c.2.04.48.04.42.34-.02.1-.27.15-.41.23,0-.19,0-.38,0-.57Z"/>
  <path class="cls-17" d="m177.96,118.97c-.06-.08-.07-.15-.01-.24.03.06.06.11.08.17,0,.01-.04.05-.07.07Z"/>
  <path class="cls-17" d="m147.06,138.95c.2.03.4.06.6.09-.58.74-1.4.96-2.27,1.01-1.89.11-3.7.7-5.34,1.49-1.3.63-2.85.69-3.96,1.76-.21.2-.71.09-1.08.12,0-.49.44-.55.74-.73,3.49-2.08,7.51-2.59,11.31-3.74Z"/>
  <path class="cls-17" d="m130.62,145.82c-.52,1.28-1.53,1.92-2.84,2.17.75-.99,1.7-1.7,2.84-2.17Z"/>
  <path class="cls-17" d="m127.76,147.99c-.28,1.05-.86,1.79-2.02,1.88.37-.96.97-1.66,2.02-1.88Z"/>
  <path class="cls-17" d="m131.68,145.15c-.03.57-.44.56-.85.54.16-.38.47-.51.85-.54Z"/>
  <path class="cls-6" d="m155.92,87.67c.1-.06.2-.13.3-.19-.05.14-.1.29-.3.19Z"/>
  <path class="cls-17" d="m111.98,170.18c.12.71-.06,1.39-.33,2.03-.99,2.35-1.63,4.81-2.19,7.29-.08.36-.03.76-.53.85-.4-.69.11-1.26.25-1.87.62-2.64,1.49-5.21,2.38-7.76.07-.2.27-.36.41-.54Z"/>
  <path class="cls-11" d="m318.1,138.97c-2.01-3.25-2.76-6.81-2.62-10.59.02-.6-.11-1.07-.55-1.51-.79-.79-1.51-1.64-2.25-2.46.04-.12.05-.26.09-.27,2.78-.46,3.64-2.39,4.12-4.9.57-3.02,1.48-5.97,2.25-8.96-.61-1.05-.02-2.23-.4-3.38,0,0-.01,0-.02,0-.01,0-.03,0-.04-.01-.01-.02-.02-.03-.03-.05-.08-.11-.14-.23-.18-.36-.05-.13-.07-.27-.1-.4-.02-.15-.03-.29-.04-.44,0-.14,0-.28,0-.43,0-.07,0-.14,0-.21-.97-1.97-2.29-3.52-4.22-4.47-1.65-.81-3.39-1.31-5.24-.81-1.26.34-1.63-.81-2.39-1.3-1.59-.87-3.21-1.55-5.1-1.43-1.61.1-2.37.59-2.92,2.18-1.78-1.12-3.6-2.04-5.69-.74.12,1.29-.75,1.58-1.76,1.96-3.49,1.31-6.53,3.16-7.39,7.19-.54,2.52.66,4.45,2.23,6.21.4.45.87.84,1.3,1.26,1.75.87,3.5,1.76,5.26,2.62,1.18.58,1.69,1.48,1.7,2.81,0,2.18.36,4.33.88,6.45.18.72.32,1.16,1.25.57,1.28-.8,2.78-.49,3.73.52,1.03,1.09,1.21,2.59.33,3.87-.4.58-.56,1.15-.54,1.83.02.8,0,1.59.01,2.39.11,5.73,5.14,8.94,10.48,6.69,1.01-.42,2.13-.14,3.15-.48,1.77-.84,3.38-1.92,4.7-3.4Z"/>
  <path class="cls-10" d="m363.35,173.39c-.18-1.18-.36-2.36-.55-3.55-.35-2.2-1.23-4.26-1.8-6.4-1.77-4.05-3.4-8.17-5.39-12.13-.44-.88-.68-1.96-.74-3.06-.22-4.48.52-8.85,1.09-13.26.25-1.95.75-3.89.65-5.89.63-3.11.73-6.26.41-9.4-.17-1.68-.27-3.39-.73-5.04-2.04-7.26-6.57-12.04-13.82-14.31-2.13-.67-4.31-1.03-6.43-1.67-3.76-.18-7.5-.98-11.28-.25-4.16,1.92-5.28,3.1-6.32,6.8,0,0,0-.01-.01-.02v.06c0,.14,0,.28,0,.42,0,.07,0,.14.02.22,0,.04,0,.07.01.11,0,0,0,0,0,.01,0,0,0,0,0,0,0,0,0,.02,0,.02,0,.02,0,.04,0,.05.02.13.05.27.1.4,0,.02.01.03.02.05,0,0,0,0,0,0,0,0,0,0,0,0,0,0,0,.01,0,.02,0,0,0,.02.01.03-.01-.02-.01-.04-.02-.06.65.19,1.06.47,1.4.84.55.15,1.05-.1,1.59-.25.14.93.16,1.79-.1,2.63.01,1.08.02,2.16.04,3.24.44,2.87,1.32,5.55,3.27,7.78.59.67,1.23,1.28,1.95,1.81,1.17.84,2.2,1.3,3.72.37,1.27-.78,2.89-.64,4.22.37,1.44,1.1,1.64,2.64,1.27,4.24-.33,1.43-1.33,2.32-2.79,2.65-.74.17-1.39.35-1.39,1.38,0,6.46-2.37,12.15-5.86,17.42-1.68,2.53-3.59,4.9-5.39,7.35-.18.45-.44.85-.82,1.16-.23.66-.62,1.22-1.1,1.72,0,0,0,0,0,0-1.14,2.13-2.29,4.25-3.43,6.38-.04.12-.08.23-.12.35-.76,2.1-1.54,4.19-1.79,6.44-.28,2.54.19,4.9,1.6,7.05.12.15.23.29.35.44.62.61,1.24,1.22,1.86,1.82,0,0,.06.03.06.03,2.65,1.85,5.48,3.17,8.82,3.04,1.31-.05,2.55-.5,3.83-.75.71-.48,1.1.1,1.56.47,4.54,3.68,9.62,6.03,15.55,6.2,8.65.24,13.71-3.35,16.36-11.53.03-.6.06-1.19.08-1.79,0-1.35,0-2.69,0-4.04Z"/>
  <path class="cls-12" d="m363.36,177.43c0-1.35,0-2.69,0-4.04.35,1.35.36,2.69,0,4.04Z"/>
  <path class="cls-17" d="m116.24,161.12c.29.48.39,1.02.04,1.44-1.36,1.63-2.12,3.58-2.96,5.48-.15.34-.32.68-.75.76-.15-1.17.72-1.97,1.14-2.91.72-1.64,1.68-3.18,2.53-4.77Z"/>
  <path class="cls-17" d="m120.41,155.53c-.12,1.34-1.14,2.18-1.9,3.11-.49.6-.49,1.82-1.71,1.72.39-1.4,1.67-2.22,2.3-3.48.28-.56.57-1.19,1.31-1.35Z"/>
  <path class="cls-17" d="m121.83,154.14c-.19.48-.53.78-1.02.92-.07-.77.47-.85,1.02-.92Z"/>
  <path class="cls-17" d="m116.71,160.63c.16.09.3.24.15.39-.06.06-.29-.05-.44-.08.1-.1.2-.2.3-.3Z"/>
  <path class="cls-2" d="m203.83,57.15c.07-.3.34-1.04.16-1.24-.83-.97-1.93-1.18-3.12-1.08-1.02.08-.69,1.05-1.02,1.59-.07.12-.13.24-.21.35-.99,1.32-.93,1.7.48,2.84.09.07.17.14.26.22,0,0,.03.06.03.06-.08.32.55.15.37.58-.41.96.39,1.13.98,1.29.69.19,1.67.08,2.05-.61.39-.71.16-1.57.05-2.37-.07-.5-.15-1.09-.04-1.59,0-.01,0-.03,0-.04Z"/>
  <path class="cls-20" d="m200.12,59.6c.09.07.17.14.26.22-.09-.07-.17-.14-.26-.22Z"/>
  <g>
    <path class="cls-26" d="m260.19,95.57v30.54c0,4.12,0,8.23,0,12.35v.03c-.08.1-.19.16-.27.25-.02-.9-1.05-.92-1.35-1.74-.28-.76-.3-1.69-.33-2.5-.06-1.51.05-3.01.14-4.51.3-4.94.5-9.89.57-14.84.07-4.58-.45-9.51.22-14.02.1-.65.26-1.28.32-1.94.1-1.26-.19-2.53-.28-3.78-.07-.91-.07-1.84-.25-2.73-.26-1.24-.73-2.01-1.81-2.2-1.21-.21-2.46-.27-3.69-.26-2.85,0-5.69-.01-8.54-.01q-3.02,0-3.02,3.44c0,14.92-.02,29.85-.02,44.77-2.36.01-4.73.02-7.09.03-.3,0-.6.02-.81-.29-.23-.34,0-1.92,0-2.38,0-.94,0-1.87,0-2.81,0-1.8,0-3.6,0-5.4,0-3.6,0-7.2,0-10.8,0-5.64-.04-11.27-.04-16.91,0-1.45.06-2.92.01-4.37-.03-.89.02-1.78.05-2.68.02-.78-.1-1.54-.12-2.33,0-.12,0-.25-.05-.36-.08-.17-.25-.26-.41-.33-.22-.09-.44-.15-.66-.18-.15-.02-.3-.04-.43-.13-.12-.09-.2-.25-.26-.4-.22-.6-.47-2.57.18-2.97.19-.12.89.05,1.15.04.39-.01.78-.01,1.18-.01,1.41,0,2.82.07,4.23.07h24.47s-.09,3.12-.12,3.42c-.06.68-.6.45-1.08.45-.58,0-1.16,0-1.73,0-.21,0-.17,4.61-.17,5.12v.33Z"/>
    <path class="cls-8" d="m263.03,88.76c-7.04,0-14.08-.01-21.12-.02q-1.89,0-2.45-1.78c.21-.66.72-.48,1.13-.49,6.23-.1,12.46-.09,18.68-.09.45,0,3.77-.56,3.9.07.04.25.08.5.12.75-.1.35-.11.7,0,1.05-.09.17-.18.34-.26.51Z"/>
    <path class="cls-8" d="m259.69,138.15c-.21.33-.53.31-.84.31-5.93-.02-11.86-.03-17.78-.05,0-14.92.02-29.85.02-44.77q0-3.44,3.16-3.44c2.9,0,5.79.02,8.69.01,1.45,0,2.9,0,4.34-.03.93-.01,1.97-.26,2.28.9.35,1.3.02,3.24.02,4.6v14.06c0,2.39-.06,4.8.06,7.18.17,3.52.04,7.09.05,10.62,0,1.8,0,3.61,0,5.41,0,.94,0,1.88,0,2.81,0,.48.24,2,0,2.38Z"/>
  </g>
  <path class="cls-14" d="m227.9,98.74c-.08-.08-.16-.16-.24-.24.17-.02.27.05.24.24Z"/>
  <path class="cls-26" d="m205.16,86.16q-.93,1.97-2.41.28s-.08-.05-.12-.07c-.18-.35-.54-.27-.83-.36.43-.66-.22-.95-.53-1.25-1.08-1.06-1.18-2.32-.81-3.64.33-1.17.85-2.28,1.23-3.44.86-2.64.38-5.32.19-7.99-.03-.37-.42-.71-.63-1.07-.39-.68-.65-1.38-.05-2.08.25-.29.3-.94.87-.71.53.22,1.25.45,1.14,1.23-.19,1.34.44,2.44.88,3.62.94,2.5,1.14,5.1.84,7.75,0,.11,0,.21,0,.32.07.51.04,1.05.23,1.51.75,1.84,1.18,3.66.24,5.56-.01.06-.02.12-.02.19-.07.06-.15.1-.23.14Z"/>
  <path class="cls-24" d="m201.8,86.02c.29.09.66,0,.83.36.1.71-.29.84-.89.82-1-.03-2.01,0-3.02.01.05-.4-.27-.88.25-1.19.94,0,1.89,0,2.83,0Z"/>
  <path class="cls-24" d="m205.16,86.16c.08-.04.16-.08.23-.14.35-.03.7-.07,1.04-.1.23.04.46.09.69.13.18.7.08,1.15-.8,1.16-.75,0-1.27-.14-1.17-1.05Z"/>
  <path class="cls-22" d="m206.43,85.92c-.35.03-.7.07-1.04.1,0-.06,0-.12.02-.19.35-.02.7-.17,1.03.08Z"/>
  <path class="cls-14" d="m204.94,78.76c0-.11,0-.21,0-.32.03.07.07.14.09.22,0,.02-.05.06-.08.1Z"/>
  <path class="cls-24" d="m203.12,59.69c-.02.08,0,.14.07.18-.06-.05-.08-.11-.07-.18Z"/>
  <path class="cls-17" d="m177.31,147.96c1.19,0,1.74,1.04,2.43,1.68,1.71,1.59,3.21,3.4,4.77,5.14.1.11.05.35.07.54-.36,0-.64-.17-.83-.44-1.58-2.25-3.78-3.87-5.71-5.77-.33-.32-.72-.61-.73-1.14Z"/>
  <path class="cls-17" d="m185.81,157.2c.88-.13,1,.66,1.33,1.14.67.99,1.28,2.01,1.7,3.14-.83.18-.85-.57-1.1-.99-.64-1.1-1.51-2.06-1.93-3.29Z"/>
  <path class="cls-17" d="m191.33,166.55c1.31,1.33,2.1,2.88,1.99,4.79-.9-.43-.6-1.44-.96-2.14-.43-.83-1.04-1.64-1.03-2.66Z"/>
  <path class="cls-17" d="m194.76,174.71c.73,1.64,1.26,3.34,1.6,5.1-.97-.35-.8-1.31-.95-2-.23-1.03-1.14-1.93-.64-3.1Z"/>
  <path class="cls-17" d="m189.33,162.02c.71,1.31,1.49,2.59,1.93,4.03-1.08-1.13-2.14-2.28-1.93-4.03Z"/>
  <path class="cls-17" d="m175.27,146.06c.58.74,1.84.74,2.04,1.89-1.36-.28-2.29-1.17-3.14-2.18.37.1.73.19,1.1.29Z"/>
  <path class="cls-17" d="m196.43,180.34c.17.95,1.2,1.7.64,2.81-.56-.86-.98-1.75-.64-2.81Z"/>
  <path class="cls-17" d="m197.51,185.13c.18.04.35.08.53.12.02.8.04,1.61.06,2.41-.62-.74-.98-1.55-.59-2.53Z"/>
  <path class="cls-17" d="m197.14,183.9c.35.13.49.35.33.71-.36-.12-.46-.36-.33-.71Z"/>
  <path class="cls-17" d="m185.23,156.37c.24.1.27.32.29.54-.32-.06-.32-.29-.29-.54Z"/>
  <path class="cls-17" d="m184.68,155.8c.09.09.17.19.26.28-.09-.09-.17-.19-.26-.28Z"/>
  <path class="cls-4" d="m318.1,138.97c-2.01-3.25-2.76-6.81-2.62-10.59.02-.6-.11-1.07-.55-1.51-.79-.79-1.51-1.64-2.25-2.46.04-.12.05-.26.09-.27,2.78-.46,3.64-2.39,4.12-4.9.57-3.02,1.48-5.97,2.25-8.96.37-.94.82-1.85.87-2.88.55.15,1.05-.1,1.59-.25.14.93.16,1.79-.1,2.63-.15,1.08-.21,2.16.04,3.24.44,2.87,1.32,5.55,3.27,7.78.59.67,1.23,1.28,1.95,1.81,1.17.84,2.2,1.3,3.72.37,1.27-.78,2.89-.64,4.22.37,1.44,1.1,1.64,2.64,1.27,4.24-.33,1.43-1.33,2.32-2.79,2.65-.74.17-1.39.35-1.39,1.38,0,6.46-2.37,12.15-5.86,17.42-1.68,2.53-3.59,4.9-5.39,7.35-.68-.71-1.44-.77-2.26-.26-1.08.07-1.86,1.27-3.08.82.95-.94,2.49-.68,3.42-1.67.84-.18,1.48-.68,2.1-1.26,1.39-1.28,2-2.99,2.72-4.65.04-.1.07-.19.11-.29l.07-.66c0-.1,0-.21.01-.31.03-.07.07-.14.11-.2l.1-.07-.07-.11c0-.22,0-.43.01-.65.44-1.57.81-3.14-.05-4.69-.07-.11-.14-.22-.21-.33-.05-.06-.1-.12-.15-.18-1.94-.65-3.87-1.3-5.28-2.91Zm14.29-14.06l-.04-.04c-.2-.47-.5-.99.46-.83.22.04.44.02.67.03.07.4.28.64.74.59.03-.52-.36-.56-.7-.63-1.51-.89-2.88-.53-3.72.98-.87,1.56-.51,2.89.99,3.66.21-.47-.34-.6-.41-.94l.05-.05c.55.01,1.1.05,1.62-.24,1.07-.6,1.22-1.63.34-2.53Z"/>
  <path class="cls-20" d="m338.54,195.42c-2.2.03-4.4.07-6.6.08-7.45,0-14.9,0-22.35,0-.56,0-1.12-.05-1.68-.07.37-.28.81-.18,1.22-.18,9.4,0,18.79,0,28.19,0,.41,0,.85-.1,1.22.17Z"/>
  <path class="cls-20" d="m315.08,166c-.76,2.1-1.54,4.19-1.79,6.44-.28,2.54.19,4.9,1.6,7.05-1.53-.73-1.74-2.26-1.89-3.62-.35-3.08,0-6.11,1.33-8.96.17-.35.21-.85.75-.91Z"/>
  <path class="cls-20" d="m284.79,195.36c.01-.15.02-.29.03-.44.53.42,1.15.31,1.75.31,6.31,0,12.63,0,18.94,0,.5,0,1.03-.15,1.5.18-7.41.08-14.82.2-22.23-.07Z"/>
  <path class="cls-20" d="m317.16,181.79c2.65,1.85,5.48,3.17,8.82,3.04,1.31-.05,2.55-.5,3.83-.75-.79,1.28-2.16.85-3.27,1-3.36.46-6.32-.75-9.09-2.55-.29-.19-.27-.47-.29-.74Z"/>
  <path class="cls-2" d="m292.75,175.01c1.1-1.75,2.28-3.43,3.83-4.81-.24,1.66-1.94,2.31-2.56,3.73-.21.48-.46,1.19-1.27,1.09Z"/>
  <path class="cls-20" d="m318.63,159.27c-1.14,2.13-2.29,4.25-3.43,6.38-.04-.62.07-1.16.41-1.72.8-1.31,1.48-2.68,2.21-4.03.18-.32.32-.71.81-.63Z"/>
  <path class="cls-2" d="m297.03,169.66c1.06-1.49,2.29-2.82,3.83-3.83.03,1.14-1.08,1.46-1.68,2.05-.64.63-.98,1.77-2.15,1.78Z"/>
  <path class="cls-2" d="m288.21,183.42c.56-1.7,1.19-3.37,2.5-4.66-.6,1.68-1.18,3.37-2.5,4.66Z"/>
  <path class="cls-2" d="m301.36,165.38c1.03-1.39,2.55-2.15,3.95-3.06-1.28,1.07-2.19,2.61-3.95,3.06Z"/>
  <path class="cls-17" d="m290.75,178.27c.54-1.09,1.08-2.18,1.94-3.07-.28,1.26-.82,2.34-1.94,3.07Z"/>
  <path class="cls-20" d="m318.28,156.14c.82-.51,1.58-.46,2.26.26-.18.45-.45.85-.83,1.16-.06-.89-1.4-.5-1.44-1.42Z"/>
  <path class="cls-2" d="m310.73,158.92c1.01-.88,2.34-1.1,3.5-1.66-.95,1.01-2.08,1.66-3.5,1.66Z"/>
  <path class="cls-17" d="m286.84,186.73c.09-1.23.75-2.23,1.35-3.25,0,1.27-.58,2.3-1.35,3.25Z"/>
  <path class="cls-20" d="m315.24,179.94c.62.61,1.24,1.22,1.86,1.82-1.08-.14-1.68-.77-1.86-1.82Z"/>
  <path class="cls-20" d="m319.72,157.55c-.23.66-.62,1.22-1.1,1.72,0-.81.09-1.56,1.1-1.72Z"/>
  <path class="cls-2" d="m305.4,162.31c.04-.09.12-.14.21-.16-.07.05-.14.11-.21.16Z"/>
  <path class="cls-4" d="m296.52,151.64c.55-1.93.85-3.89.63-5.91.25-1.2-.09-1.89-1.46-1.98-.75-.05-1.48-.4-2.14-.71-.72-.33-1.41-.72-2.08-1.14-.22-.14-.45-.29-.64-.47-.42-.37-.73-.85-1.02-1.33-.46-.74-.91-1.5-1.2-2.33s-.42-1.8-.57-2.67c-.17-.97-.28-1.95-.4-2.93-.08-.62-.2-.97-.88-.95-.42,0-.84-.12-1.26-.09-1.05.08-1.19-.41-.86-1.26.68-1.78,1.01-3.68,1.97-5.35.39-.67.5-1.37.49-2.13-.01-2.43-.18-4.86.07-7.29,1.75.87,3.5,1.76,5.26,2.62,1.18.58,1.69,1.48,1.7,2.81,0,2.18.36,4.33.88,6.45.18.72.32,1.16,1.25.57,1.28-.8,2.78-.49,3.73.52,1.03,1.09,1.21,2.59.33,3.87-.4.58-.56,1.15-.54,1.83.02.8,0,1.59.01,2.39.11,5.73,5.14,8.94,10.48,6.69,1.01-.42,2.13-.14,3.15-.48.34,1.11-.15,2.35.57,3.39.02,1.85.09,3.69.48,5.52.15.73.42,1.49.1,2.26-.55.06-1.1.12-1.64.18-3.15-.12-6.28.25-9.42.45-.42.02-.84.05-1.25.07-.17,0-.33.02-.5.03-.41.02-.83.05-1.24.07-.36-.03-.73-.06-1.1-.09-1,0-2.02-.28-3,.15-.23,0-.45,0-.68,0-.31-.49-.09-.84.28-1.17.46-.42.75-.91.53-1.57Zm1.25-21.1c.09-.09.18-.18.27-.28.61-.62.05-1.26-.07-1.93.38.1.64.17.89.23.04.17.05.38.28.41.05,0,.16-.11.15-.15-.03-.23-.23-.24-.4-.28-1.17-.9-2.12-.71-2.85.57-.95.43-.59,1.24-.39,1.85.2.6.43-.15.68-.14.38.37.76.37,1.14,0,.09-.09.19-.19.28-.28Z"/>
  <path class="cls-14" d="m314.54,153.53c.33-.76.06-1.53-.1-2.26-.39-1.83-.46-3.67-.48-5.52,3.23,0,6.46,0,9.69,0,.04.44.08.88.13,1.33,0,.22,0,.43-.02.65-.07.05-.08.11-.03.18-.04.06-.08.13-.11.2-.26.09-.23.2-.02.31-.02.22-.05.44-.07.66-.04.1-.07.19-.11.29-.72,1.66-1.32,3.37-2.72,4.65-.63.58-1.26,1.08-2.1,1.26-.52-1.01-1.63-.9-2.47-1.29-.5-.23-1.07-.31-1.61-.46Z"/>
  <path class="cls-8" d="m303.48,154.16c3.14-.19,6.27-.57,9.42-.45-2.73.35-5.48.42-8.23.49-.21,0-.42,0-.63,0-.19-.02-.38-.04-.57-.05Z"/>
  <path class="cls-17" d="m296.52,151.64c.23.66-.06,1.15-.53,1.57-.37.34-.59.69-.28,1.17-.34,0-.68,0-1.02,0,.19-1.19,1.36-1.73,1.82-2.74Z"/>
  <path class="cls-17" d="m296.39,154.38c.98-.43,2-.14,3-.15.03.04.06.09.1.13-1.03,0-2.07.01-3.1.02Z"/>
  <path class="cls-26" d="m299.49,154.36s-.07-.08-.1-.13c.36.03.73.06,1.1.09-.33.16-.66.13-1,.04Z"/>
  <path class="cls-26" d="m304.04,154.21c.21,0,.42,0,.63,0-.21.28-.42.27-.63,0Z"/>
  <path class="cls-26" d="m301.73,154.25c.17,0,.33-.02.5-.03-.16.21-.32.22-.5.03Z"/>
  <path class="cls-8" d="m204.09,137.61c.08.07.16.14.24.21-.11.08-.22.23-.33.23-3.44.01-6.89.01-10.33,0-.11,0-.22-.15-.33-.23,3.04,0,6.09,0,9.13-.02.54,0,1.12.16,1.63-.19Z"/>
  <path class="cls-8" d="m217.67,137.82c-.26.23-.57.29-.91.29-3.13,0-6.26,0-9.39,0-.34,0-.65-.03-.89-.31,0,0,.11-.04.11-.04,3.65,0,7.3,0,10.95,0,.06-.03.1,0,.13.05Z"/>
  <path class="cls-17" d="m289.08,139.03c.1.02.14.08.13.17-.11-.01-.15-.07-.13-.17Z"/>
  <polygon class="cls-17" points="289.04 138.8 289.04 138.85 288.95 138.83 289.04 138.8"/>
  <path class="cls-24" d="m211.17,134.16c-.22.95.43.88,1.02.86.63.66,1.53.6,2.32.85,1.17.37,2.4.66,3.03,1.9-3.65,0-7.3,0-10.95,0-.85-1.33.27-2.46.38-3.69.6-.36,1.13-.63,1.92-.28.74.33,1.63.26,2.44-.05-.05.13-.11.27-.16.4Z"/>
  <path class="cls-22" d="m192.55,95.37c-.19,0-.38,0-.57,0-.13-.03-.26-.05-.39-.08-.79-.39-1.64-.1-2.45-.23.6-1.18,1.68-.53,2.46-.49.92.05,1.53-.07,1.95-.88.26.91-.25,1.36-.99,1.68Z"/>
  <path class="cls-14" d="m211.17,134.16c.05-.14.11-.27.16-.4.02-1.91.03-3.83.05-5.74.48,1.93.2,3.89.2,5.83,0,.1-.26.21-.41.31Z"/>
  <path class="cls-5" d="m160.52,112.63c-.02-.08-.04-.12-.04-.16,0-.01.07-.02.1-.03-.02.05-.03.11-.06.19Z"/>
  <path class="cls-22" d="m323.66,145.76c-3.23,0-6.46,0-9.69,0-.72-1.04-.23-2.29-.57-3.39,1.77-.84,3.38-1.92,4.7-3.4,1.4,1.62,3.34,2.26,5.28,2.91,0,.1.05.16.15.19.07.11.14.22.21.32-.02,1.12-.05,2.24-.07,3.36Z"/>
  <path class="cls-20" d="m321.53,113.03c-.25-1.08-.18-2.16-.04-3.24.01,1.08.02,2.16.04,3.24Z"/>
  <path class="cls-17" d="m323.66,145.76c.02-1.12.05-2.24.07-3.36.86,1.56.49,3.12.05,4.69-.04-.44-.08-.88-.12-1.33Z"/>
  <path class="cls-17" d="m323.62,148.43c-.22-.12-.25-.22.02-.31,0,.11-.01.21-.02.31Z"/>
  <path class="cls-17" d="m323.44,149.38c.04-.1.07-.19.11-.29-.04.1-.07.19-.11.29Z"/>
  <path class="cls-17" d="m323.74,147.92c-.05-.07-.04-.13.03-.18,0,0,.07.11.07.11l-.1.07Z"/>
  <path class="cls-17" d="m323.53,142.07c-.1-.02-.15-.09-.15-.19.05.06.1.12.15.19Z"/>
  <path class="cls-2" d="m330.37,127.74c-.03-.05-.07-.11-.1-.16.05.03.1.07.16.1,0,0-.05.05-.05.05Z"/>
  <path class="cls-8" d="m385.87,196.78c1.52,2.25.92,4.74.82,7.13-.06,1.58-1.91,2.8-3.7,2.89-.31.02-.63,0-.94,0-105.96,0-211.91,0-317.87.02-1.67,0-3.09-.29-4.14-1.54-.39-.46-.68-.94-.68-1.53,0-1.64-.05-3.28.02-4.92.29-7.1,54.23-3.11,60.3-3.08,82.42.46,164.83-.77,247.25-.09,4.17.03,8.33.11,12.5.11,2.21.02,4.48-.28,6.45,1.01Z"/>
  <rect class="cls-28" x="53.77" y="194.29" width="350.33" height="17"/>
  <g>
    <polygon class="cls-3" points="294.12 49.76 307.47 29.95 294.33 29.95 287.56 40.06 294.12 49.76"/>
    <path class="cls-6" d="m284.02,43.77h-.01s-9.39-13.81-9.39-13.81h-.04l-6.01-8.85h-13.14c7.32,10.78,14.63,21.56,21.95,32.34-5.3,7.83-10.6,15.66-15.9,23.49h13.19l15.9-23.49-6.55-9.68Z"/>
    <path class="cls-25" d="m307.43,76.94h.05c-4.45-6.6-8.9-13.21-13.35-19.81-2.2,3.24-4.39,6.49-6.59,9.73l6.74,10.08h0l6.76,10.11h13.2l-6.81-10.11Z"/>
  </g>
</svg>