<?xml version="1.0" encoding="UTF-8"?>
<svg xmlns="http://www.w3.org/2000/svg" xmlns:xlink="http://www.w3.org/1999/xlink" viewBox="0 0 486.41 220.46">
  <defs>
    <style>
      .cls-1 {
        fill: #f6984c;
      }

      .cls-2 {
        fill: #eab881;
      }

      .cls-3 {
        fill: #e8e8e8;
      }

      .cls-4 {
        fill: #fbb94b;
      }

      .cls-5 {
        fill: #334b76;
      }

      .cls-6 {
        fill: #bbbabd;
      }

      .cls-7 {
        fill: #dc9c48;
      }

      .cls-8 {
        fill: #453845;
      }

      .cls-9 {
        fill: #6f89b5;
      }

      .cls-10 {
        fill: #2b180e;
      }

      .cls-11 {
        fill: #2d466b;
      }

      .cls-12 {
        fill: #263661;
      }

      .cls-13 {
        fill: #749dd2;
      }

      .cls-14 {
        fill: url(#linear-gradient);
        opacity: .1;
      }

      .cls-15, .cls-16 {
        opacity: .31;
      }

      .cls-17, .cls-18 {
        opacity: .51;
      }

      .cls-16 {
        fill: url(#linear-gradient-2);
      }

      .cls-18 {
        fill: url(#linear-gradient-3);
      }

      .cls-19 {
        fill: url(#linear-gradient-5);
        opacity: .52;
      }

      .cls-20 {
        fill: url(#linear-gradient-4);
        opacity: .76;
      }

      .cls-21 {
        fill: #d9ddea;
        opacity: .73;
      }
    </style>
    <linearGradient id="linear-gradient" x1="-713.79" y1="162.36" x2="-633.59" y2="105.63" gradientTransform="translate(842.57 0) scale(1.03 1)" gradientUnits="userSpaceOnUse">
      <stop offset="0" stop-color="#abb9d6"/>
      <stop offset=".59" stop-color="#879acb"/>
      <stop offset="1" stop-color="#7389c5"/>
    </linearGradient>
    <linearGradient id="linear-gradient-2" x1="272.08" y1="426.25" x2="454.95" y2="426.25" gradientTransform="translate(0 273.25) scale(1 -.38)" xlink:href="#linear-gradient"/>
    <linearGradient id="linear-gradient-3" x1="65.44" y1="157.87" x2="157.67" y2="157.87" gradientUnits="userSpaceOnUse">
      <stop offset="0" stop-color="#a7b6d5"/>
      <stop offset="1" stop-color="#7389c5"/>
    </linearGradient>
    <linearGradient id="linear-gradient-4" x1="-7330.54" y1="222.79" x2="-7302.64" y2="203.06" gradientTransform="translate(-8936.51 508.15) rotate(176.66) scale(1.27 -.99)" xlink:href="#linear-gradient"/>
    <linearGradient id="linear-gradient-5" x1="-7168.26" y1="112.88" x2="-7140.36" y2="93.15" gradientTransform="translate(-16107.08 819.66) rotate(176.66) scale(2.28 -2.54)" xlink:href="#linear-gradient"/>
  </defs>
  <g id="Layer_1" data-name="Layer 1">
    <g>
      <path class="cls-21" d="m176.27,25.31c-2.39,1.27-3.93,2.34-5.86,3.52-25.21,15.47-50.41,30.94-75.62,46.41-7.46,4.58-14.99,9.21-21.24,15.19-14.65,14.03-20.39,33.59-23.28,52.57-1.31,8.6-1.09,16.78-5.39,24.49-4.88,8.76-11.96,17.69-18.62,25.34,1.68-1.93,26.49,1.74,30.27,1.83,10.33.24,20.39-.5,30.53-1.18,18.68-1.25,30.77-.19,46.77.36,74.85,2.59,238.03,1.25,269.9.52,22.46-.51,21.44-1.68,31.96-.9,5.99.45,7.65.87,11.24.56,3.65-.31,5.48-.47,6.19-1.52,2.13-3.18-5.51-11.73-12.25-19.41-7.86-8.95-15.08-18.46-23.29-27.09-17.83-18.75-12.66-23.66-36.92-58.26-19.92-28.42-31.54-36.7-38.52-40.95-4.49-2.73-11.43-5.47-25.3-10.95,0,0-40.16-15.87-68.24-18.35-4.43-.39-8.97-.59-8.97-.59-6.76-.26-12.86-.06-21.45.22-22.35.72-32.64,3.27-41.92,8.2Z"/>
      <path class="cls-14" d="m142.78,203.02c-28.78-37.39-57.55-74.79-86.33-112.18,21.91-25.81,43.82-51.62,65.73-77.42,45.48,61.74,90.95,123.48,136.43,185.22-38.61,1.46-77.22,2.93-115.83,4.39Z"/>
      <path class="cls-16" d="m324.35,42.61c13.74,17.7,27.47,35.41,41.21,53.11-27.71,35.61-55.42,71.22-83.13,106.83h89.39c27.71-35.61,55.42-71.22,83.13-106.83-13.74-17.7-27.47-35.41-41.21-53.11h-.15c-6.58-8.48-13.15-16.95-19.73-25.43h-51.05s-38.34,0-38.34,0c6.58,8.48,13.15,16.95,19.73,25.43h.15Z"/>
      <path class="cls-18" d="m114.6,150.3c10.4-13.41,20.79-26.81,31.19-40.22h-13.48s-9.8,0-9.8,0h-25.88s-31.19,40.22-31.19,40.22l12.85,16.57.02-.03,18.42,23.67h.08l11.79,15.15h9.8s3.68,0,3.68,0h9.8s2.5,0,2.5,0h13.48s9.8,0,9.8,0c-14.35-18.46-28.71-36.91-43.06-55.37Z"/>
      <path class="cls-20" d="m385.53,200.95c9.82-13.74,19.63-27.47,29.45-41.21-8.58-8.58-17.17-17.17-25.75-25.75-15.46,22.63-30.91,45.27-46.37,67.9,14.23-.31,28.45-.63,42.68-.94Z"/>
      <path class="cls-19" d="m203.4,198.44c16.96-34.95,33.93-69.91,50.89-104.86-15.78-22.52-31.56-45.04-47.34-67.56-26.67,57.63-53.34,115.26-80,172.9,25.49-.16,50.97-.31,76.46-.47Z"/>
    </g>
    <g class="cls-15">
      <path class="cls-5" d="m138.5,125.94c1.3-2.74,3.06-6.1,1.16-8.73-.69-.87-1.76-1.38-2.56-2.32-2.05-2.11-1.74-5.73.38-7.65,1.47-1.62,4.67-2.39,5.95-.1.45.85,1.14,2.88-.32,3.03-.48,0-.86-.38-.87-.85-.21-3.92-4.72-.65-4.6,1.76-.19,2.35,2.27,3.24,3.63,4.81,2.7,3.22.8,7.96-.73,11.1-.27.57-.96.81-1.53.54-.59-.28-.83-1.01-.51-1.59h0Z"/>
    </g>
    <g class="cls-17">
      <path class="cls-5" d="m133.67,128.7c-.07-1.53.26-3.26,1.25-4.59.48-.64.72-.97.92-1.6.82-1.75-.74-2.98-2.45-2.61-1.01.26-1.71,1.42-1.58,2.56.09.83-1.17.99-1.28.16-.62-4.24,5.05-6.01,6.99-2.22.65,1.74-.2,3.47-1.09,4.74-.67.99-.85,2.19-.76,3.45.04.55-.37,1.03-.92,1.07-.57.04-1.06-.4-1.08-.96h0Z"/>
    </g>
  </g>
  <g id="Layer_6" data-name="Layer 6">
    <path class="cls-11" d="m299.09,194.56c-.21.22-.4.48.13.55.38.05.99-.01,1.54-.08,4.53-.53,9.06-1.06,13.59-1.59-2.91-3.5-2.93-7.54-.04-11.82-.17.26-9.09.72-10.24,1.15-1.61.61-.09,3.08-.21,3.73-.49,2.57-2.09,5.28-4.78,8.05Z"/>
    <path class="cls-9" d="m270.29,189.57c11.07.09,22.14.17,33.21.26,10.66.08,22.5-.26,30.16-7.34,5.31-4.9,7.45-12.07,9.17-18.93,5.36-21.31,6.62-43.54,2.55-65.25-1.07-5.7-2.56-11.5-6.01-16.16-5.98-8.08-22.62-11.5-28.77-1.49-1.8,2.94-1.9,6.57-1.95,10.02-.31,22,3.19,43.46-1.83,65.43-1.64,6.21-4.6,12.74-10.59,15.62-4.44,2.13-9.66,1.83-14.63,1.9s-10.41.76-13.81,4.22-2.47,11.69,2.5,11.73Z"/>
    <g>
      <path class="cls-10" d="m319.61,118.5c3.04-.45,6.2-1.69,7.87-4.36,1.31-2.09,1.49-4.76,1.02-7.2s-1.55-4.7-2.63-6.93c-3.65-7.54-9.73-13.81-9.93-22.8-.07-3.24,1.07-6.28,1.31-9.46.27-3.55.23-7.41-.17-10.95-.44-3.85-1.82-7.79-4.84-10.38-3.32-1.98-6.63-2.22-9.94-4.03-4.12-2.25-8.79-3.72-13.53-3.05-7.35,1.03-13.28,7.02-16.13,13.88s-3.09,14.49-2.86,21.91c.17,5.44.58,10.88.3,16.32-.25,4.78-3.04,9.57-2.72,14.2.18,2.63,2.25,5.34,4.78,5.06,14.29-1.6,27.61,8.2,41.91,9.72,2.29.24,4.35.09,5.55-1.94Z"/>
      <path class="cls-10" d="m312.55,62.34c-.33-.1-.66-.18-1-.24-.37-.07-.74-.12-1.11-.16-.37-.05-.73-.09-1.1-.14-.11-.02-.23-.04-.34-.06.31,1.72.54,3.47.14,5.16-.48,2.03-1.81,3.77-2.68,5.68-1.98,4.37-1.41,9.44.12,13.98.09.26.06.73.15.99,2.01-4.81,3.75-9.72,5.22-14.7.38-1.29.74-2.59.8-3.93.05-1.22-.16-2.44-.23-3.66-.06-.97-.03-1.94.04-2.91Z"/>
      <path class="cls-2" d="m282.59,51.53c-2.34,5.92-3.48,12.31-3.32,18.67.03,1.04.09,2.08.39,3.08.83,2.7,3.29,4.55,5.61,6.21,2.78,1.99,6.19,3.98,9.62,3.85,3.14-.12,6.02-1.89,8.12-4.19,1.15-1.26,1.77-2.82,2.81-4.13.88-1.11,1.52-1.97,1.97-3.37,1.67.4,3.51-.67,4.13-2.2s.09-3.37-1.09-4.57c-.43-.44-1.07-.82-1.65-.61-.37-1.97-.03-3.8-.07-5.75-.03-1.5-.22-3-.81-4.39-.32-.76-.75-1.47-1.18-2.17-.66-1.09-1.35-2.21-2.33-3.03"/>
      <path class="cls-10" d="m307.5,57.2c.85,1.07,1.12,2.44,1.37,3.77.04.24.09.47.13.71.17.03.33.05.5.08.37.05.74.09,1.1.14.37.05.74.1,1.1.17.29.06.57.13.85.22.12-1.62.35-3.25.47-4.87.05-.59.07-1.21-.16-1.76,0-.8-1.86-1.84-2.39-2.4-1.14-1.18-2.17-2.54-3.32-3.75-.72-.75-1.45-1.51-2.4-1.99-1.17-.59-2.53-.67-3.85-.73-5.53-.25-11.41-.27-16.17,2.44-3.62,2.07-7.62,6.04-9.12,9.87-.95,2.43-.91,5.09-.87,7.69.13,7.07.32,14.41,3.68,20.71.87,1.63,2.18,3.3,4.09,3.18,1.63-1.62,1.8-4.17,1.17-6.33-.63-2.16-1.92-4.08-2.93-6.1-1.17-2.33-1.97-4.82-2.45-7.36-.45-2.4-.61-4.89,0-7.25.48-1.86,1.41-3.58,2.33-5.29,1.44-2.65,3.07-5.49,5.92-6.74,4.2-1.84,10.08.81,13.62-2.03,1.32,1.95,2.68,3.93,4.57,5.38.94.72,2.02,1.31,2.75,2.23Z"/>
      <path class="cls-2" d="m285.27,88.98c1.09.66,2.45.69,3.74.7,3.05.03,6.1.06,9.16.09.2,0,.41,0,.58-.09.42-.22.42-.78.36-1.23-.37-2.89-.74-5.79-1.11-8.68-.06-.47-9.38-.85-10.05-.15-.71.75-.59,3.45-.85,4.47-.43,1.69-1.04,3.33-1.82,4.9Z"/>
      <path class="cls-2" d="m269.65,113.49c-.72-.98-1.76-1.71-2.83-2.35-2.43-1.46-5.57-2.56-8.09-1.26-1.04.53-1.83,1.41-2.59,2.27-1.28,1.44-2.51,3.34-4.4,4.12-2.21.91-4.29-1.27-5.92-2.52-4.05-3.1-7.54-6.87-10.24-11.1-.88-1.37-1.33-2.73-1.59-4.32-.23-1.38-.47-2.77-.7-4.15-.25-1.45-.5-2.94-1.26-4.22-.17-.29-.42-.6-.77-.6-.19,0-.37.1-.52.22-.97.79-.61,2.32-.41,3.36.21,1.08.31,2.63-1.27,2.34-1.06-.19-2.18-2.26-2.62-3.02-1.12-1.95-1.66-4.22-2.28-6.34-.25-.86-.62-1.84-1.51-2.12-.16-.05-.35-.07-.49.02-.18.11-.23.34-.25.54-.12.9-.24,1.79-.37,2.69-.37-.41-.73-.83-1.09-1.24-.09-.1-.18-.2-.31-.23-.3-.06-.48.3-.55.58-.46,1.85-.89,3.74-.67,5.65.25,2.23,1.21,4.32,1.82,6.47.54,1.91,2.42,3.31,3.93,4.61.55.47,1.18.99,1.86,1.27.84.35,1.61.41,2.35,1s1.25,1.28,1.78,2c1.53,2.05,3.07,4.09,4.6,6.14,1.34,1.78,2.26,3.64,3.48,5.49,1.83,2.78,3.8,5.49,6.07,7.96.96,1.05,2.37,2.37,3.88,2.61,1.71.27,3.98-.88,5.48-1.52,4.23-1.82,8.58-3.67,12.03-6.65.74-.63,1.47-1.27,2.2-1.91.79-.69,1.61-1.42,1.95-2.39.4-1.14.03-2.43-.69-3.41Z"/>
      <path class="cls-1" d="m273.75,97.56c-2.74,5.19-4.32,11.43-5.02,15.71-1.44,8.72.82,17.45-.36,26.18-.42,3.09-1.89,6.07-.37,9.19,2.04,4.19,7.28,4.82,11.47,4.49,2.87-.23,5.74-.45,8.6-.8,2.79-.34,5.57-.79,8.38-.79,4.61.02,9.66,1.11,13.95,2.71,1.68.63,8.32,2.01,7.87,4.52,2.99-16.56,2.62-33.48,2.24-50.28-.05-2.01-.1-4.06-.82-5.94-.85-2.21-2.69-3.99-4.89-5.01-1.9-.88-4.16-.52-5.86-1.48-4.53-2.54-6.53-7.12-12.69-6.7-2.22.15-4.45.12-6.67-.09-1.78-.17-4.39-1.21-6.08-.81-4.23,1.01-7.42,4.67-9.76,9.1Z"/>
      <path class="cls-1" d="m295.52,116.09c-1.69,4.43-3.74,8.57-6.24,12.77,2.93-1.97,6.81-2.6,10.26-1.67s6.41,3.42,7.82,6.57c4.1-3.06,5.86-6.58,7.96-10.89,2.33-4.76,5.1-8.38,5.38-13.89.28-5.46-1.69-11.09-5.69-15-4.01-3.91-10.07-5.93-15.69-4.83,2.54,2.92,1.31,7.76.61,11.26-.7,3.49-1.56,6.95-2.6,10.36-.55,1.83-1.16,3.6-1.82,5.32Z"/>
      <path class="cls-2" d="m307.18,123.14c-1.46-1.47-3.06-3.07-5.15-3.92-2.53-1.04-3.82-.02-5.48,1.59-4.88,4.74-8.65,9.98-11.96,15.53-.24.4-.49.8-.91,1.07-.36.23-.8.33-1.23.42-.04,0-.08.02-.11.02-2.8.55-5.6,1.11-8.4,1.66-5.92,1.17-11.9,2.33-17.99,2.66-.31.02-.63.02-.94.03-.39,0-.79,0-1.18,0-.05,0-.09,0-.14,0,0,0,0,0,0,0-2.62.06-5.28.43-7.87.75-4.17.52-8.55,1.33-11.68,4,1.69.22,3.4.44,5.08.22,1.19-.16,2.33-.53,3.51-.71.68-.11,1.37-.15,2.07-.17,0-.01,0-.02.02-.03.13-.02.26-.04.39-.05.52-.05,1.04-.02,1.54.09.1.02.19.06.29.08.25.03.5.05.74.08l-.37.02s.06.02.1.03c.26.09.51.21.76.31,1.06.4,2.21.46,3.33.34,1.14-.12,2.25-.41,3.37-.64,1.11-.23,2.26-.35,3.4-.38.29,0,.59,0,.88.02.27.03.53.07.8.11.52.08,1.03.17,1.56.16.36.1.73.19,1.1.26.05,0,.1.01.14.02.55-.01,1.1-.01,1.65-.01,4.93,0,10.48.63,15.28-.31,2.47-.48,4.96-.95,7.48-1.23,2.47-.27,4.26-.11,6.35-1.4,2.83-1.75,4.91-4.98,7-7.35,2.14-2.42,4.27-4.85,6.41-7.27,2.23-2.53,2.8-3.39.21-6Z"/>
      <path class="cls-1" d="m286.2,88.79c-1.21-1.08-4.72.13-6.11.51-4.56,1.25-8.77,3.72-12.39,6.81-5.55,4.73-9.81,10.84-13.58,17.13,3.37,2.84,6.15,6.4,8.13,10.39.15.31.33.65.66.76.23.07.47,0,.7-.06,5.15-1.57,7-6.12,10.09-10.23,3.72-4.95,6.49-10.41,9.93-15.51.64-.94,1.23-1.91,1.75-2.93.76-1.49,2.43-5.35.84-6.84,0,0-.01-.01-.02-.02Z"/>
    </g>
    <path class="cls-5" d="m163.79,148.2c.09-2.72-.4-5.35-.98-8.01-.42-1.93-.49-4.01-.88-5.94-.53-2.58-.68-5.22-1.34-7.77-.34-1.31-.55-2.66-.72-4-.49-3.78-1.26-7.52-1.9-11.28-.36-2.11-.66-4.23-.93-6.36-.14-1.11.17-2.12,1.12-2.87.36.42.74.1.98-.08,1-.76,2.14-.75,3.32-.74,4.26.02,8.53.01,12.79.01,8.86,0,17.71-.03,26.57.03,1.69.01,3.32.31,3.88,2.36.2.71.25,1.6.9,2.19,0,0,0,0,0,0-.18,1.77.45,3.46.57,5.19.02.36.26.26.48.18.73,4.17,1.49,8.33,2.19,12.51.94,5.59,1.8,11.19,2.75,16.78.18,1.08.42,2.14.53,3.23.07.68.37,1.15,1.34,1.13,3.19-.07,6.38,0,9.57,0,0,.16.01.32.02.48-2.16-.07-4.3-.03-6.4.56-.28.08-.67.13-.56.43.45,1.23-.16,1.33-1.22,1.24-.41-.04-.88.27-1.12.7-.09.04-.18.07-.26.11-.09-.03-.18-.05-.27-.06-.07-.06-.13-.12-.2-.18-.04.06-.07.12-.11.18-.18.01-.36.03-.54.04-.09,0-.19,0-.28,0l-3.1.03c-.56-.02-1.12-.06-1.68-.06-12.39,0-24.77,0-37.16,0-1.59,0-3.19.04-4.78.05-.85-.02-1.7-.04-2.55-.06Zm19.49-18.76c2.62.46,5.44-2.76,5.39-4.91-.08-3.24-2.68-5.36-5.69-5.38-3.05-.02-5.35,2.47-5.34,5.59.01,2.31,2.51,4.98,5.65,4.7Z"/>
    <path class="cls-8" d="m248.26,148.26c-9.01,0-18.02,0-27.04,0-1.5,0-2.99,0-4.49,0-.09-.02-.17-.05-.26-.09.43-.41.98-.22,1.47-.22,9.9-.01,19.8-.02,29.7.01,1.05,0,2.03-.34,3.06-.3.48.02.6-.28.66-.69.22-1.44,0-1.72-1.57-1.72-8.59-.01-17.17-.02-25.76-.02,0-.16-.01-.32-.02-.48.11-.03.23-.07.34-.1.32.02.65.06.97.07,8.77.11,17.54-.27,26.3.28,0,0,.07,0,.07,0-.02,1.07-.03,2.14-.05,3.21,0,0-.03-.02-.03-.02-.37.02-.74.05-1.11.07-.47,0-.95,0-1.42,0-.28,0-.56,0-.83,0Z"/>
    <path class="cls-12" d="m206.6,105.73c-.64-.59-.7-1.48-.9-2.19-.56-2.05-2.19-2.35-3.88-2.36-8.86-.06-17.71-.03-26.57-.03-4.26,0-8.53,0-12.79-.01-1.18,0-2.33-.02-3.32.74-.24.19-.62.5-.98.08.5-.65,1.21-.97,2.02-1.11.23.02.47.05.7.05,13.79,0,27.58,0,41.37,0,.33,0,.65-.05.98-.08,2.1.33,3.4,1.74,3.38,4.9Z"/>
    <path class="cls-9" d="m203.22,100.83c-.33.03-.65.08-.98.08-13.79,0-27.58,0-41.37,0-.23,0-.47-.03-.7-.05.41-.33.9-.2,1.35-.2,13.45,0,26.89,0,40.34,0,.45,0,.94-.14,1.35.17Z"/>
    <path class="cls-12" d="m207.64,111.1c-.22.08-.45.18-.48-.18-.12-1.74-.75-3.43-.57-5.19.71,1.42.47,3,.83,4.48.07.3.14.59.21.89Z"/>
    <path class="cls-12" d="m224.04,145.22c8.59,0,17.17.01,25.76.02,1.56,0,1.79.28,1.57,1.72-.06.41-.18.71-.66.69-1.03-.04-2.01.31-3.06.3-9.9-.03-19.8-.02-29.7-.01-.49,0-1.04-.18-1.47.22-.48.03-.96.06-1.44.09-.1-.03-.2-.07-.29-.1.24-.43.71-.73,1.12-.7,1.06.09,1.67-.01,1.22-1.24-.11-.31.28-.35.56-.43,2.1-.6,4.24-.63,6.4-.56Z"/>
    <path class="cls-9" d="m183.28,129.44c-3.14.27-5.64-2.39-5.65-4.7-.01-3.12,2.29-5.61,5.34-5.59,3.01.02,5.61,2.14,5.69,5.38.05,2.15-2.77,5.37-5.39,4.91Z"/>
    <path class="cls-6" d="m209.96,148.26c-.45.36-.99.2-1.49.2-13.55,0-27.09,0-40.64,0-.5,0-1.04.16-1.49-.2,1.59-.02,3.19-.05,4.78-.05,12.39,0,24.77,0,37.16,0,.56,0,1.12.04,1.68.06Z"/>
    <path class="cls-6" d="m214.74,148.16c.1.03.2.07.29.1-.18.23-.37.24-.56,0,.09-.04.18-.07.26-.11Z"/>
    <path class="cls-6" d="m214.2,148.2c-.1,0-.21,0-.31,0,.04-.06.07-.12.11-.18.07.06.13.12.2.18Z"/>
    <path class="cls-6" d="m213.35,148.24c-.1.13-.19.13-.28,0,.09,0,.19,0,.28,0Z"/>
    <path class="cls-6" d="m216.73,148.26c1.5,0,2.99,0,4.49,0-1.5.33-2.99.33-4.49,0Z"/>
    <path class="cls-11" d="m264.14,205.54c-4.02-8.17-7.66-16.5-10.89-24.98-.49-1.3-.99-2.69-.67-4.04.43-1.84,2.21-3.07,3.93-3.98,2.7-1.43,5.59-2.51,8.58-3.22,10.5-2.49,22.77-.62,31.13-7.17,1.41-1.11,2.72-2.61,2.67-4.35-.19-6.26-13.25-8.83-18.29-8.97-8.96-.25-18.28,1.69-27.01,3.37-6.55,1.26-13.21,2.68-18.93,5.98s-10.42,8.84-10.86,15.21c-.51,7.31,4.47,13.82,9.19,19.6l10.27,12.57h20.88Z"/>
    <path class="cls-5" d="m316.56,151.43c-.05-.06-.12-.12-.19-.17-1.52-1.11-6.92-.72-8.49-.79-7.76-.36-15.11,1.01-22.34,3.64-6.2,2.51-13.87,1.42-20.61,2.26-7.9.98-15.69,2.73-23.22,5.22-3.2,1.06-6.39,2.27-9.1,4.21-10.96,7.87-9.53,22.07-9.4,33.72.02,1.78.08,3.56.14,5.34h21.26c.22-1.52.46-3.04.74-4.56,1.73-9.4.85-14.73,12.24-16.76,9.08-1.61,18.2-2.99,27.35-4.13,7.61-.95,17.64-.12,24.11-4.24,1.99-1.27,4.01-2.57,5.47-4.37,2.26-2.79,1.62-5.85,1.82-9.12.13-2.16,1.71-8.54.19-10.24Z"/>
    <g>
      <path class="cls-3" d="m141.8,204.72h6.24c0-8.51-.01-17.01-.03-25.52,0-5.63-.02-11.26-.04-16.9,0-.88.87-6.21-.05-6.83-2.13,0-4.25,0-6.38,0,.16,0,.25,18.94.26,40.55,0,2.86,0,5.77,0,8.69Z"/>
      <path class="cls-3" d="m290.54,204.72h6.49c0-.91.01-1.82.01-2.74.02-7.72.25-15.45.07-23.16-.14-5.94-2.41-14.78-.15-20.4.42-.96.27-1.96.31-2.95-2.22,0-4.45,0-6.67,0-.1,0-.1,23.96-.07,49.25Z"/>
      <path class="cls-3" d="m147.92,155.47c47.56,0,95.12,0,142.68,0,2.22,0,4.45,0,6.67,0,3.27.01,6.54.03,9.81.04.1.03.21.06.32.07.69-.01,1.38-.03,2.06-.04.14,0,.29,0,.43,0,1.14-.04,2.28-.14,3.4.11.54-.42,1.05-1.04,1.84-.22,1.26-.09,2.53-.48,3.78.04.56-.03,1.12-.06,1.69-.09-.06-.62.67-.78,1.12-1.09,1.23-.84,1.85-2.35,1.35-3.42-.66-1.42-1.93-2.13-3.9-2.14-2.83-.01-5.66,0-8.49-.02-.57,0-1.34.23-1.57-.48-.1-.01-.2-.02-.29-.02-7.68,0-15.36,0-23.04,0l-.04-.02c-.42.42-.89.35-1.38.07-.59,0-1.17,0-1.76,0-.34.27-.69.27-1.03,0-11.18,0-22.35,0-33.53,0-1.86.33-3.71.33-5.57,0-.11-.02-.22-.05-.32-.09-.6.03-1.19.06-1.79.09-.23.23-.46.24-.69,0-.11-.03-.22-.05-.34-.06-.13,0-.26,0-.39,0-.22.01-.45.03-.67.04-.12.13-.24.13-.35,0-1.28,0-2.57.02-3.85.03-.56.36-1.23.2-1.85.2-16.8,0-33.6,0-50.4,0-.62,0-1.29.16-1.85-.2-1.05-.02-2.11-.04-3.16-.06h-20.57c-1.93.51-3.98.46-5.94.49-7.82.11-15.65.06-23.48.03-1.72,0-3.43-.37-5.17-.26-.28,0-.53-.05-.68-.26-2.73,0-5.46,0-8.19,0-.27,0-.52-.13-.82,0-1.8.8-2.88,3.24-2.41,5.01.37,1.41,2.67,2.27,4.77,2.26,9.06-.02,18.13,0,27.19,0,2.13,0,4.26,0,6.38,0Z"/>
      <polygon class="cls-3" points="120.99 148.2 120.99 148.21 121 148.21 120.99 148.2"/>
    </g>
    <path class="cls-4" d="m148.92,138.01c-.26-1.12-.63-2-1.12-2.66-.76-1.02-1.94-1.43-3.07-1.51v-3.29h-14.2v19.03h14.2v-2.05c.09,0,.16,0,.25,0,1.28,0,2.9-.27,3.58-2.25.78-2.25.91-4.9.37-7.27Zm-2.23,6.04c-.21.6-1.18.65-1.97.63v-7.99c.69.07,1.33.29,1.63.69.25.33.44.82.6,1.49.39,1.69.29,3.58-.26,5.18Z"/>
    <path class="cls-7" d="m131.23,149.24c.91-.93,1.99-1.68,2.94-2.57.67-.61,1.28-1.27,1.7-2.08.32-.61.57-1.26.79-1.92.25-.76.46-1.53.67-2.3.22-.82.42-1.64.64-2.46.22-.81.45-1.62.72-2.42.25-.75.54-1.48.9-2.19.32-.62.69-1.23,1.16-1.74.39-.43.86-.78,1.38-1.03h-11.61v19.03h.41c.1-.11.19-.23.3-.33Z"/>
  </g>
  <g id="Layer_5" data-name="Layer 5">
    <rect class="cls-13" x="71.8" y="190.96" width="336.16" height="15.58"/>
  </g>
</svg>