<?xml version="1.0" encoding="UTF-8"?>
<svg id="Layer_1" data-name="Layer 1" xmlns="http://www.w3.org/2000/svg" viewBox="0 0 54.84 62.62">
  <defs>
    <style>
      .cls-1 {
        fill: #fff;
      }
    </style>
  </defs>
  <polygon class="cls-1" points="35.74 27.22 48.42 8.4 35.94 8.4 29.51 18.01 35.74 27.22"/>
  <path class="cls-1" d="m27.15,21.52h0s-8.92-13.12-8.92-13.12h-.04L12.48,0H0c6.95,10.24,13.9,20.48,20.84,30.71-5.03,7.44-10.07,14.87-15.1,22.31h12.53l15.1-22.31-6.22-9.19Z"/>
  <path class="cls-1" d="m48.38,53.02h.05c-4.23-6.27-8.45-12.54-12.68-18.81-2.09,3.08-4.17,6.16-6.26,9.24l6.4,9.57h0l6.42,9.6h12.54l-6.47-9.6Z"/>
</svg>