<?xml version="1.0" encoding="UTF-8"?>
<svg id="Layer_5" data-name="Layer 5" xmlns="http://www.w3.org/2000/svg" xmlns:xlink="http://www.w3.org/1999/xlink" viewBox="0 0 440.24 342.75">
  <defs>
    <style>
      .cls-1 {
        fill: url(#linear-gradient);
        opacity: .15;
      }

      .cls-2 {
        fill: #f3b44d;
      }

      .cls-3 {
        fill: #8193ca;
      }

      .cls-4 {
        fill: #8ba1d2;
      }

      .cls-5 {
        fill: #334b76;
      }

      .cls-6 {
        fill: #cddaf0;
      }

      .cls-7 {
        fill: #bbbabd;
      }

      .cls-8 {
        fill: #a2badc;
      }

      .cls-9 {
        fill: #2b446b;
      }

      .cls-10 {
        fill: #4a668e;
      }

      .cls-11 {
        fill: #749dd2;
      }

      .cls-12 {
        opacity: .41;
      }

      .cls-13 {
        fill: url(#linear-gradient-14);
      }

      .cls-14 {
        fill: url(#linear-gradient-13);
      }

      .cls-15 {
        fill: url(#linear-gradient-12);
      }

      .cls-16 {
        fill: url(#linear-gradient-10);
      }

      .cls-17 {
        fill: url(#linear-gradient-11);
      }

      .cls-18 {
        fill: url(#linear-gradient-6);
        stroke: url(#linear-gradient-7);
      }

      .cls-18, .cls-19, .cls-20 {
        stroke-miterlimit: 10;
        stroke-width: 10px;
      }

      .cls-19 {
        fill: url(#linear-gradient-8);
        stroke: url(#linear-gradient-9);
      }

      .cls-20 {
        fill: url(#linear-gradient-4);
        stroke: url(#linear-gradient-5);
      }

      .cls-21 {
        fill: url(#linear-gradient-2);
        opacity: .31;
      }

      .cls-22 {
        fill: url(#linear-gradient-3);
        opacity: .67;
      }

      .cls-23 {
        fill: #d9ddea;
        opacity: .73;
      }
    </style>
    <linearGradient id="linear-gradient" x1="-769.5" y1="215.44" x2="-704.44" y2="169.42" gradientTransform="translate(861.29 0) scale(1.03 1)" gradientUnits="userSpaceOnUse">
      <stop offset="0" stop-color="#abb9d6"/>
      <stop offset=".59" stop-color="#879acb"/>
      <stop offset="1" stop-color="#7389c5"/>
    </linearGradient>
    <linearGradient id="linear-gradient-2" x1="204.56" y1="374.06" x2="396.9" y2="374.06" gradientTransform="translate(0 307.98) scale(1 -.38)" xlink:href="#linear-gradient"/>
    <linearGradient id="linear-gradient-3" x1="321.44" y1="223.98" x2="392.79" y2="223.98" gradientUnits="userSpaceOnUse">
      <stop offset="0" stop-color="#a7b6d5"/>
      <stop offset="1" stop-color="#7389c5"/>
    </linearGradient>
    <linearGradient id="linear-gradient-4" x1="229.42" y1="91.54" x2="348.76" y2="91.54" gradientTransform="matrix(1, 0, 0, 1, 0, 0)" xlink:href="#linear-gradient"/>
    <linearGradient id="linear-gradient-5" x1="223.03" y1="93.05" x2="359.13" y2="93.05" gradientTransform="matrix(1, 0, 0, 1, 0, 0)" xlink:href="#linear-gradient"/>
    <linearGradient id="linear-gradient-6" x1="43.24" y1="153.37" x2="253.8" y2="153.37" gradientTransform="matrix(1, 0, 0, 1, 0, 0)" xlink:href="#linear-gradient"/>
    <linearGradient id="linear-gradient-7" x1="57.39" y1="153.37" x2="260.2" y2="153.37" gradientTransform="matrix(1, 0, 0, 1, 0, 0)" xlink:href="#linear-gradient"/>
    <linearGradient id="linear-gradient-8" x1="229.28" y1="255.11" x2="389.29" y2="255.11" gradientTransform="matrix(1, 0, 0, 1, 0, 0)" xlink:href="#linear-gradient"/>
    <linearGradient id="linear-gradient-9" x1="222.9" y1="253.6" x2="399.66" y2="253.6" gradientTransform="matrix(1, 0, 0, 1, 0, 0)" xlink:href="#linear-gradient"/>
    <linearGradient id="linear-gradient-10" x1="147.8" y1="129.09" x2="290.72" y2="211.6" gradientUnits="userSpaceOnUse">
      <stop offset="0" stop-color="#85a2cb"/>
      <stop offset=".49" stop-color="#7d98bf"/>
      <stop offset="1" stop-color="#728bae"/>
      <stop offset="1" stop-color="#6f87aa"/>
      <stop offset="1" stop-color="#657c9d"/>
    </linearGradient>
    <linearGradient id="linear-gradient-11" x1="179.43" y1="2932.75" x2="189.68" y2="3037.52" gradientTransform="translate(0 3013.37) scale(1 -1)" gradientUnits="userSpaceOnUse">
      <stop offset="0" stop-color="#201b59"/>
      <stop offset="1" stop-color="#2d2d84"/>
    </linearGradient>
    <linearGradient id="linear-gradient-12" x1="186.67" y1="2892.88" x2="173.16" y2="2852.83" xlink:href="#linear-gradient-11"/>
    <linearGradient id="linear-gradient-13" x1="286.44" y1="2897.38" x2="294.62" y2="2981.07" xlink:href="#linear-gradient-11"/>
    <linearGradient id="linear-gradient-14" x1="292.22" y1="2865.52" x2="281.43" y2="2833.53" xlink:href="#linear-gradient-11"/>
  </defs>
  <g>
    <path class="cls-23" d="m101.47,96.01c-17.63,12.8-31.69,30.12-39.51,52.43-4.22,12.06-6.39,24.79-11.11,36.66-4.19,10.52-10.38,20.25-18.13,28.5-5.03,5.35-10.87,10.4-14.53,16.87-1.15,2.03-6.16,18.64-2.08,19.21,25.08,3.53,50.12,3.29,75.28,1.06,30.21-2.68,60.68-1.41,91.09-1.15,18.74.17,37.47.41,56.21.63,17.21.2,37.07-2.44,53.97.66,19.81,3.64,40,4.94,60.12,4.56,10.35-.2,20.62-1.02,30.93-1.85,7.45-.6,14.62.74,22.15.34,3.32-3.67,1.17-9.46-1.12-13.85-2.29-4.39-4.62-8.83-8-12.46-4.32-4.64-10.23-7.81-13.62-13.16-2.76-4.35-3.53-9.63-4.24-14.74-.91-6.58-1.47-13.24-2.26-19.78-.67-5.52-3.19-10.64-4.71-16.03-.77-2.73-1.19-5.61-2.11-8.29-.68-1.98-3.88-5.84-3.88-7.57-11.25-16.82-25.84-36.02-43.53-46.79-4.49-2.73-11.42-5.47-25.27-10.94-6.72-2.65-13.25-5.56-20.12-8.02-23.05-8.24-45.19-13.48-68.63-14.71-4.89-.26-13.21-.66-24.01.15-29.72,2.21-59.45,11.25-82.88,28.27Z"/>
    <path class="cls-1" d="m97.4,253.23c-21.88-31.46-43.76-62.92-65.63-94.38,16.66-21.71,33.31-43.42,49.97-65.14,34.58,51.94,69.15,103.88,103.73,155.83-29.35,1.23-58.71,2.46-88.06,3.69Z"/>
    <path class="cls-21" d="m259.54,94.42c14.45,18.47,28.9,36.95,43.34,55.42-29.15,37.16-58.29,74.32-87.44,111.48h94.02c29.15-37.16,58.29-74.32,87.44-111.48-14.45-18.47-28.9-36.95-43.34-55.42h-.16c-6.92-8.84-13.83-17.69-20.75-26.53h-53.69s-40.33,0-40.33,0c6.92,8.84,13.84,17.69,20.75,26.53h.16Z"/>
    <path class="cls-22" d="m345.71,253.13l3.07,3.94h37.96c-9.09-11.69-18.18-23.37-27.26-35.06,8.04-10.37,16.09-20.74,24.13-31.12h-38.04s-24.13,31.12-24.13,31.12l9.94,12.82.02-.02,14.25,18.31h.06Z"/>
    <g class="cls-12">
      <polygon class="cls-20" points="268.76 141.81 348.76 41.26 270.02 41.26 229.42 92.57 268.76 141.81"/>
      <path class="cls-18" d="m214.49,111.45l-56.25-70.18h-.25l-11.43-14.27h-78.75c35.65,44.5,71.31,89,106.96,133.5-31.75,39.75-63.51,79.49-95.26,119.24h79.04l95.26-119.24-39.25-49.13-.06.08Z"/>
      <path class="cls-19" d="m348.47,279.74h.29c-26.67-33.52-53.33-67.03-80-100.55-13.16,16.47-26.31,32.94-39.47,49.41l40.36,51.14h.05l40.48,51.3h79.12l-40.82-51.3Z"/>
    </g>
  </g>
  <g>
    <path class="cls-9" d="m181.12,139.5c-.01-.27-1.18-26.93-12.79-36.5-3.41-2.81-7.44-3.88-11.98-3.18-22.99,3.56-22.15,39.27-22.14,39.63l-1.35.04c0-.09-.26-9.37,2.44-18.98,3.61-12.86,10.81-20.47,20.85-22.03,4.94-.76,9.33.4,13.05,3.47,12.08,9.96,13.24,36.37,13.28,37.49l-1.35.05Z"/>
    <path class="cls-5" d="m110.55,128.42l71.22-1.18,20.91,118.57h-106.44c-3.64,0,11.03-103.43,12.84-116.11.1-.73.72-1.28,1.46-1.29Z"/>
    <path class="cls-5" d="m194.3,128.31l-12.53-1.07,20.91,118.57h14c1.63,0,2.86-1.5,2.53-3.1l-23.05-112.76c-.18-.9-.94-1.57-1.86-1.65Z"/>
    <path class="cls-9" d="m166.35,139.22c-.01-.27-1.18-26.93-12.79-36.5-3.41-2.81-7.44-3.88-11.98-3.18-22.99,3.56-22.15,39.27-22.14,39.63l-1.35.04c0-.09-.26-9.37,2.44-18.98,3.61-12.86,10.81-20.47,20.85-22.03,4.94-.76,9.33.4,13.05,3.47,12.08,9.96,13.24,36.37,13.28,37.49l-1.35.05Z"/>
  </g>
  <g>
    <path class="cls-16" d="m301.76,170.34c0,45.56-36.94,82.5-82.5,82.5s-82.5-36.94-82.5-82.5,36.94-82.5,82.5-82.5,82.5,36.94,82.5,82.5"/>
    <g>
      <path class="cls-10" d="m140.19,146.73c3.45,6.74,14.06,13.04,18.05,13.04,4.43,0,8.58,6.71,8.58,6.71h1.74c1.74,0-.54,6.71-1.48,11.94-.94,5.23,4.9,7.04,8.05,10.19,3.15,3.15.34,16.83,2.95,19.45,2.62,2.62,9.46,7.44,10.33,6.57.87-.87-2.95-8.85-.4-12.88,2.55-4.02,4.29-8.45,7.11-13.41,2.82-4.96,9.12-4.29,9.79-11.13.67-6.84-8.72-8.05-14.22-8.05s-6.04-4.83-10.87-6.71c-4.83-1.88-10.19,2.55-11.49,2.55s-4.2-6.44-6.75-7.78c-2.55-1.34-6.98-.54-8.05-4.02-1.07-3.49,6.3-3.89,12.61-3.89s6.71-1.48,6.71-5.23,7.11-5.77,13.01-11.67c5.9-5.9-.54-12.21-4.16-11.13-3.62,1.07-12.74,2.95-11.13-.8,1.61-3.76,13.68-3.35,13.68-3.35,0,0,.03-.01,3.62-1.88,3.62-1.88-9.66-3.32-10.73-3.32s2.01-3.66.54-5.13c-1.48-1.48-3.62,3.35-6.17,3.35s-6.44.94-9.52,1.74c-.25.06-.54.04-.87-.07-9.65,9.59-16.94,21.54-20.93,34.92"/>
      <path class="cls-10" d="m171.38,107.86c3.89-2.01.67-4.16.67-4.16,0,0-.53-.02-1.39-.04-2.13,1.55-4.18,3.21-6.14,4.95,2.36.44,4.88.27,6.86-.76"/>
      <path class="cls-10" d="m184.66,105.58s-5.77,4.16-4.29,4.16,5.83.87,8.58,3.62c2.75,2.75,2.82,2.41,2.01,5.37-.8,2.95,11.87-1.41,10.06-3.22l-1.81-1.81s-2.35-1.72-3.02-4.85c-.67-3.13-11.54-3.26-11.54-3.26"/>
      <path class="cls-10" d="m205.72,99.14s-11,.54-11,3.09v2.55s5.45,0,6.48,2.95l1.03,2.95s3.42,3.62,2.72,8.45c-.7,4.83-.57,7.24,3.45,7.24s8.05-9.93,13.14-11.27c5.1-1.34,6.17-3.62,6.98-9.52.8-5.9-22.8-6.44-22.8-6.44"/>
      <path class="cls-10" d="m268.6,146.1s-34.14,13.91-38.1,17.87c-3.96,3.96-.67,8.05-.67,13.01s13.41,3.49,15.56,1.34c2.15-2.15,3.89,2.28,5.9,9.66,2.01,7.38-4.83,21.08-.54,21.87,4.29.8,19.99-13.56,23.61-23.89,3.62-10.33,4.29-20.52-2.28-25.62-6.57-5.1-3.48-14.25-3.48-14.25"/>
      <path class="cls-10" d="m276.42,110.85c-5.46.69-10.95,1.79-11.28,3.45-.66,3.33-.67,3.35-.67,3.35h-12.74c-4.56,0-8.05,4.16-8.05,6.71s7.44,2.62,5.63,4.43c-1.81,1.81-9.05,1.54-10.86,3.35l-1.81,1.81s-4.36,7.31-7.18,8.92c-2.82,1.61-3.75.67-2.82,1.61.94.94,8.45,2.15,11.54-.94,0,0,5.47-3.49,7.04-3.76,1.58-.27,1.78.91,2.78,1.24,1.01.34,3.02.94,3.02,1.51s-.44,1.61-.14,1.61,1.44-1.84,1.44-2.15-.97-.67-.97-.67l1.31.13v-.27s-1.81-.3-2.25-.74c-.44-.44-.6-1.11-1.01-1.51-.4-.4.67-2.08,1.11-2.08s2.98,2.88,4.16,2.88h1.17s2.05.47,3.79,1.61c1.73,1.13,1.74,1.14,1.74,1.14,0,0,3.89,3.12,3.89,4.36s1.92,10.17,4.25,9.69c2.31-.48,7.6-4.78,10.64-6.39,3.04-1.61,4.02-1.88,10.73-1.16,2.27.24,5.27.84,8.41,1.3-3.81-15.28-11.89-28.87-22.89-39.44"/>
    </g>
  </g>
  <g>
    <path class="cls-17" d="m179.12,200.62c0-.13-.57-13-6.17-17.61-1.65-1.36-3.59-1.87-5.78-1.53-11.1,1.72-10.69,18.95-10.69,19.12l-.65.02s-.12-4.52,1.18-9.16c1.74-6.21,5.22-9.88,10.06-10.63,2.38-.37,4.5.19,6.3,1.68,5.83,4.8,6.39,17.55,6.41,18.09l-.65.03Z"/>
    <path class="cls-8" d="m145.06,195.27l34.37-.57,10.09,57.22h-51.37c-1.75,0,5.32-49.92,6.2-56.03.05-.35.35-.62.71-.62Z"/>
    <path class="cls-3" d="m185.48,195.22l-6.05-.51,10.09,57.22h6.76c.79,0,1.38-.72,1.22-1.5l-11.12-54.42c-.09-.44-.45-.76-.9-.8Z"/>
    <path class="cls-15" d="m171.99,200.48c0-.13-.57-13-6.17-17.61-1.65-1.36-3.59-1.87-5.78-1.53-11.1,1.72-10.69,18.95-10.69,19.12l-.65.02s-.12-4.52,1.18-9.16c1.74-6.21,5.22-9.88,10.06-10.63,2.38-.37,4.5.19,6.3,1.68,5.83,4.8,6.39,17.55,6.41,18.09l-.65.03Z"/>
  </g>
  <g>
    <path class="cls-14" d="m286.18,211.86c0-.1-.45-10.38-4.93-14.07-1.32-1.08-2.87-1.5-4.62-1.23-8.86,1.37-8.54,15.14-8.54,15.28l-.52.02s-.1-3.61.94-7.32c1.39-4.96,4.17-7.89,8.04-8.49,1.9-.29,3.6.16,5.03,1.34,4.66,3.84,5.1,14.02,5.12,14.45l-.52.02Z"/>
    <path class="cls-6" d="m258.98,207.58l27.46-.45,8.06,45.71h-41.04c-1.4,0,4.25-39.88,4.95-44.76.04-.28.28-.49.56-.5Z"/>
    <path class="cls-4" d="m291.27,207.54l-4.83-.41,8.06,45.71h5.4c.63,0,1.1-.58.98-1.19l-8.89-43.47c-.07-.35-.36-.61-.72-.64Z"/>
    <path class="cls-13" d="m280.49,211.75c0-.1-.45-10.38-4.93-14.07-1.32-1.08-2.87-1.5-4.62-1.23-8.86,1.37-8.54,15.14-8.54,15.28l-.52.02s-.1-3.61.94-7.32c1.39-4.96,4.17-7.89,8.04-8.49,1.9-.29,3.6.16,5.03,1.34,4.66,3.84,5.1,14.02,5.12,14.45l-.52.02Z"/>
  </g>
  <g>
    <path class="cls-2" d="m312.64,122.72c-6.73-1-13.47-2-20.2-2.99-1.51,1.15-3.02,2.3-4.54,3.44-.65,6.91-1.3,13.83-1.96,20.74,10.96,13.81,21.93,27.62,32.89,41.43l26.69-21.19-32.89-41.43Zm-12.33,10.15c-1.33,1.94-3.48,2.78-4.81,1.88-1.33-.91-1.34-3.22-.02-5.17s3.48-2.78,4.81-1.88c1.33.91,1.34,3.22.02,5.17Z"/>
    <path class="cls-2" d="m141.49,154.79c-1.36-.96-2.71-1.92-4.07-2.88-5.72.92-11.43,1.83-17.15,2.75-7.86,11.56-15.73,23.13-23.59,34.69l24.67,16.78,23.59-34.69c-1.15-5.55-2.31-11.1-3.46-16.65Zm-5.12,9.83c-.91,1.33-3.22,1.34-5.17.02-1.94-1.33-2.78-3.48-1.88-4.81.91-1.33,3.22-1.34,5.17-.02,1.94,1.33,2.78,3.48,1.88,4.81Z"/>
    <path class="cls-2" d="m307.48,168.88c-5.61-3.85-11.23-7.7-16.84-11.55-1.86.37-3.73.74-5.59,1.1-3.62,5.93-7.24,11.85-10.86,17.78,3.79,17.22,7.59,34.44,11.38,51.66l33.28-7.33-11.38-51.66Zm-16.37,4.08c-2.11,1.04-4.4.71-5.11-.73s.42-3.46,2.53-4.51c2.11-1.04,4.4-.71,5.11.73s-.42,3.46-2.53,4.51Z"/>
  </g>
  <path class="cls-7" d="m194.98,202.64c.1.03.2.07.29.1-.18.23-.37.24-.56,0,.09-.04.18-.07.26-.11Z"/>
  <rect class="cls-11" x="52.04" y="245.45" width="336.16" height="15.58"/>
</svg>