<?xml version="1.0" encoding="UTF-8"?>
<svg id="Layer_1" data-name="Layer 1" xmlns="http://www.w3.org/2000/svg" viewBox="0 0 176.82 63.09">
  <defs>
    <style>
      .cls-1 {
        fill: #fff;
      }
    </style>
  </defs>
  <path class="cls-1" d="m25.39,8.64h0v27.89c0,.9-.19,1.77-.57,2.57-.38.81-.91,1.52-1.57,2.13-.66.6-1.44,1.09-2.31,1.44-.87.35-1.81.53-2.79.53h-.82c-.98,0-1.92-.18-2.79-.53-.88-.35-1.65-.84-2.31-1.44-.66-.6-1.18-1.32-1.57-2.13-.38-.8-.57-1.66-.57-2.57V8.64h0s-10.08,0-10.08,0h0v28.45c0,2.29.46,4.46,1.36,6.47.9,2,2.16,3.77,3.73,5.26,1.57,1.49,3.43,2.69,5.54,3.56,2.11.88,4.41,1.32,6.82,1.32h.53c2.41,0,4.71-.45,6.82-1.32,2.11-.88,3.97-2.07,5.54-3.56,1.57-1.49,2.82-3.26,3.73-5.26.9-2,1.36-4.18,1.36-6.47V8.64h0s-10.02,0-10.02,0Z"/>
  <g>
    <polygon class="cls-1" points="69.3 27.45 81.98 8.64 69.5 8.64 63.07 18.24 69.3 27.45"/>
    <path class="cls-1" d="m60.71,21.76h0s-8.92-13.12-8.92-13.12h-.04L46.04.23h-12.48c6.95,10.24,13.9,20.48,20.84,30.71-5.03,7.44-10.07,14.87-15.1,22.31h12.53l15.1-22.31-6.22-9.19Z"/>
    <path class="cls-1" d="m81.94,53.26h.05c-4.23-6.27-8.45-12.54-12.68-18.81-2.09,3.08-4.17,6.16-6.26,9.24l6.4,9.57h0l6.42,9.6h12.54l-6.47-9.6Z"/>
  </g>
  <g>
    <path class="cls-1" d="m97.88,12.9c-.92,0-1.79.16-2.61.49-.82.33-1.53.77-2.15,1.34s-1.1,1.23-1.45,1.98c-.35.75-.53,1.55-.53,2.4s.18,1.65.53,2.4c.35.75.84,1.41,1.45,1.98.62.57,1.33,1.01,2.15,1.34.81.33,1.68.49,2.61.49.85,0,1.72-.2,2.61-.59.89-.39,1.77-.93,2.64-1.61v4.86c-.85.38-1.72.68-2.59.9s-1.76.33-2.65.33c-1.52,0-2.94-.26-4.27-.79-1.32-.53-2.48-1.25-3.48-2.17-1-.92-1.78-1.99-2.35-3.2-.57-1.22-.86-2.53-.86-3.93s.29-2.69.86-3.92c.57-1.23,1.35-2.3,2.35-3.22,1-.92,2.15-1.64,3.48-2.17,1.32-.53,2.74-.79,4.27-.79.89,0,1.77.11,2.65.34.88.23,1.74.53,2.59.91v4.83c-.87-.68-1.75-1.22-2.64-1.62-.89-.39-1.76-.59-2.61-.59Z"/>
    <path class="cls-1" d="m115.07,8.64c1.63,0,3.14.26,4.54.79,1.39.53,2.6,1.25,3.61,2.18,1.01.93,1.81,2.02,2.39,3.28.58,1.26.87,2.63.87,4.12s-.29,2.84-.87,4.11c-.58,1.27-1.38,2.37-2.39,3.29-1.01.93-2.22,1.65-3.61,2.18-1.39.53-2.91.79-4.54.79s-3.14-.26-4.54-.79-2.6-1.25-3.61-2.18-1.81-2.02-2.39-3.29c-.58-1.27-.87-2.64-.87-4.11s.29-2.86.87-4.12c.58-1.26,1.38-2.35,2.39-3.28s2.22-1.65,3.61-2.18c1.39-.53,2.91-.79,4.54-.79Zm0,16.85c1.01,0,1.96-.17,2.82-.5.87-.33,1.62-.79,2.25-1.36.63-.58,1.13-1.26,1.49-2.05.36-.79.54-1.65.54-2.57s-.18-1.79-.54-2.58-.86-1.47-1.49-2.05c-.63-.58-1.39-1.04-2.25-1.36-.87-.33-1.81-.49-2.82-.49s-1.96.16-2.82.49c-.87.33-1.62.78-2.25,1.36s-1.13,1.27-1.49,2.05-.54,1.64-.54,2.58.18,1.77.54,2.57c.36.79.86,1.48,1.49,2.05.63.58,1.39,1.03,2.25,1.36.87.33,1.81.5,2.82.5Z"/>
    <path class="cls-1" d="m135.18,9.22c1.12,0,2.14.15,3.04.44.91.29,1.68.71,2.32,1.26.64.55,1.14,1.21,1.49,1.99.35.78.53,1.65.53,2.62s-.18,1.82-.53,2.6c-.35.78-.85,1.45-1.49,2-.64.55-1.42.98-2.32,1.28-.91.3-1.92.45-3.04.45h-2.61v6.94h-4.18V9.22h6.79Zm.22,8.86c.94,0,1.67-.23,2.2-.68.53-.45.79-1.08.79-1.88s-.26-1.43-.79-1.88c-.52-.45-1.26-.68-2.2-.68h-2.82v5.11h2.82Z"/>
    <path class="cls-1" d="m148.38,12.97v4.06h7.47v3.76h-7.47v4.23h9.02v3.78h-13.2V9.22h13.2v3.76h-9.02Z"/>
    <path class="cls-1" d="m176.82,9.22v19.58h-3.42l-9.81-12.09v12.09h-4.24V9.22h3.4l9.78,12.07v-12.07h4.29Z"/>
  </g>
  <g>
    <path class="cls-1" d="m105.65,33.72v19.58h-4.21v-8.01h-8.69v8.01h-4.18v-19.58h4.18v7.81h8.69v-7.81h4.21Z"/>
    <path class="cls-1" d="m126.4,53.3h-4.51l-1.2-3.03h-8.15l-1.2,3.03h-4.51l7.93-19.58h3.69l7.93,19.58Zm-7.17-6.76l-2.61-6.61-2.61,6.61h5.22Z"/>
    <path class="cls-1" d="m136.56,37.4c-.92,0-1.79.16-2.61.49-.82.33-1.53.77-2.15,1.34s-1.1,1.23-1.45,1.98c-.35.75-.53,1.55-.53,2.4s.18,1.65.53,2.4c.35.75.84,1.41,1.45,1.98.62.57,1.33,1.01,2.15,1.34.81.33,1.68.49,2.61.49.2,0,.38,0,.54-.01.16,0,.33-.02.49-.04v-5.98h4.21v8.69c-.85.38-1.72.68-2.59.9s-1.76.33-2.65.33c-1.52,0-2.94-.26-4.27-.79-1.32-.53-2.48-1.25-3.48-2.17-1-.92-1.78-1.99-2.35-3.2-.57-1.22-.86-2.53-.86-3.93s.29-2.69.86-3.92c.57-1.23,1.35-2.3,2.35-3.22,1-.92,2.15-1.64,3.48-2.17,1.32-.53,2.74-.79,4.27-.79.89,0,1.77.11,2.65.34.88.23,1.74.53,2.59.91v4.83c-.87-.68-1.75-1.22-2.64-1.62-.89-.39-1.76-.59-2.61-.59Z"/>
    <path class="cls-1" d="m148.38,37.48v4.06h7.47v3.76h-7.47v4.23h9.02v3.78h-13.2v-19.58h13.2v3.76h-9.02Z"/>
    <path class="cls-1" d="m176.82,33.72v19.58h-3.42l-9.81-12.09v12.09h-4.24v-19.58h3.4l9.78,12.07v-12.07h4.29Z"/>
  </g>
</svg>